<svg width="249" height="86" viewBox="0 0 249 86" fill="none" xmlns="http://www.w3.org/2000/svg">
<g clip-path="url(#clip0_9005_1486)">
<path fill-rule="evenodd" clip-rule="evenodd" d="M16.6533 10.6883C15.236 10.6883 13.8767 11.2513 12.8745 12.2535C11.8724 13.2557 11.3093 14.6149 11.3093 16.0322V69.4718C11.3093 70.8892 11.8724 72.2484 12.8745 73.2506C13.8767 74.2528 15.236 74.8157 16.6533 74.8157L195.117 74.8152C196.22 71.6862 198.268 68.9765 200.976 67.06C203.686 65.1434 206.922 64.1142 210.24 64.1142C213.558 64.1142 216.794 65.1434 219.504 67.06C222.212 68.9765 224.26 71.6862 225.363 74.8152H231.616C233.033 74.8152 234.392 74.2521 235.395 73.25C236.397 72.2478 236.96 70.8886 236.96 69.4713V16.0317C236.96 14.6143 236.397 13.2551 235.395 12.2529C234.392 11.2507 233.033 10.6877 231.616 10.6877H225.363C224.26 13.8167 222.212 16.5263 219.504 18.4429C216.794 20.3594 213.558 21.3887 210.24 21.3887C206.922 21.3887 203.686 20.3594 200.976 18.4429C198.268 16.5263 196.22 13.8167 195.117 10.6877L16.6533 10.6883ZM0.621407 16.0322C0.621407 11.7803 2.31047 7.70257 5.31703 4.69601C8.32359 1.68945 12.4014 0.000377946 16.6533 0.000377946L199.552 -0.000228882C200.969 -0.000228882 202.328 0.562795 203.331 1.56498C204.333 2.56716 204.896 3.92643 204.896 5.34373C204.896 6.76104 205.459 8.12029 206.461 9.12247C207.464 10.1247 208.823 10.6877 210.24 10.6877C211.657 10.6877 213.016 10.1247 214.019 9.12247C215.021 8.12029 215.584 6.76104 215.584 5.34373C215.584 3.92643 216.147 2.56716 217.149 1.56498C218.152 0.562795 219.511 -0.000228882 220.928 -0.000228882H231.616C235.867 -0.000228882 239.945 1.68884 242.953 4.6954C245.959 7.70196 247.648 11.7797 247.648 16.0317V69.4713C247.648 73.7232 245.959 77.8009 242.953 80.8074C239.945 83.8141 235.867 85.5032 231.616 85.5032H220.928C219.511 85.5032 218.152 84.9401 217.149 83.9379C216.147 82.9357 215.584 81.5765 215.584 80.1592C215.584 78.7418 215.021 77.3826 214.019 76.3804C213.016 75.3782 211.657 74.8152 210.24 74.8152C208.823 74.8152 207.464 75.3782 206.461 76.3804C205.459 77.3826 204.896 78.7418 204.896 80.1592C204.896 81.5765 204.333 82.9357 203.331 83.9379C202.328 84.9401 200.969 85.5032 199.552 85.5032L16.6533 85.5038C12.4014 85.5038 8.32359 83.8147 5.31703 80.8081C2.31047 77.8015 0.621407 73.7237 0.621407 69.4718V16.0322ZM210.24 26.7196C211.657 26.7196 213.016 27.2826 214.019 28.2848C215.021 29.287 215.584 30.6462 215.584 32.0636V34.7356C215.584 36.1528 215.021 37.5121 214.019 38.5142C213.016 39.5164 211.657 40.0795 210.24 40.0795C208.823 40.0795 207.464 39.5164 206.461 38.5142C205.459 37.5121 204.896 36.1528 204.896 34.7356V32.0636C204.896 30.6462 205.459 29.287 206.461 28.2848C207.464 27.2826 208.823 26.7196 210.24 26.7196ZM215.584 50.7674C215.584 49.35 215.021 47.9908 214.019 46.9886C213.016 45.9865 211.657 45.4235 210.24 45.4235C208.823 45.4235 207.464 45.9865 206.461 46.9886C205.459 47.9908 204.896 49.35 204.896 50.7674V53.4394C204.896 54.8567 205.459 56.2159 206.461 57.2181C207.464 58.2203 208.823 58.7834 210.24 58.7834C211.657 58.7834 213.016 58.2203 214.019 57.2181C215.021 56.2159 215.584 54.8567 215.584 53.4394V50.7674Z" fill="#742EC8"/>
<path d="M18.85 34.7C18.6167 34.3333 18.4 33.8333 18.2 33.2C18 32.5667 17.9 31.9 17.9 31.2C17.9 29.9 18.1833 28.9667 18.75 28.4C19.35 27.8333 20.1167 27.55 21.05 27.55H42.85C43.0833 27.9167 43.3 28.4167 43.5 29.05C43.7 29.6833 43.8 30.35 43.8 31.05C43.8 32.35 43.5 33.2833 42.9 33.85C42.3333 34.4167 41.5833 34.7 40.65 34.7H35.1V57.8C34.7333 57.9 34.15 58 33.35 58.1C32.5833 58.2 31.8167 58.25 31.05 58.25C30.2833 58.25 29.6 58.1833 29 58.05C28.4333 57.95 27.95 57.75 27.55 57.45C27.15 57.15 26.85 56.7333 26.65 56.2C26.45 55.6667 26.35 54.9667 26.35 54.1V34.7H18.85ZM57.2547 58.8C55.288 58.8 53.4547 58.5333 51.7547 58C50.088 57.4333 48.6214 56.6 47.3547 55.5C46.1214 54.4 45.138 53.0167 44.4047 51.35C43.7047 49.6833 43.3547 47.7333 43.3547 45.5C43.3547 43.3 43.7047 41.4167 44.4047 39.85C45.138 38.25 46.088 36.95 47.2547 35.95C48.4214 34.9167 49.7547 34.1667 51.2547 33.7C52.7547 33.2 54.288 32.95 55.8547 32.95C57.6214 32.95 59.2214 33.2167 60.6547 33.75C62.1214 34.2833 63.3714 35.0167 64.4047 35.95C65.4714 36.8833 66.288 38 66.8547 39.3C67.4547 40.6 67.7547 42.0167 67.7547 43.55C67.7547 44.6833 67.438 45.55 66.8047 46.15C66.1714 46.75 65.288 47.1333 64.1547 47.3L51.8047 49.15C52.1714 50.25 52.9214 51.0833 54.0547 51.65C55.188 52.1833 56.488 52.45 57.9547 52.45C59.3214 52.45 60.6047 52.2833 61.8047 51.95C63.038 51.5833 64.038 51.1667 64.8047 50.7C65.338 51.0333 65.788 51.5 66.1547 52.1C66.5214 52.7 66.7047 53.3333 66.7047 54C66.7047 55.5 66.0047 56.6167 64.6047 57.35C63.538 57.9167 62.338 58.3 61.0047 58.5C59.6714 58.7 58.4214 58.8 57.2547 58.8ZM55.8547 39.15C55.0547 39.15 54.3547 39.2833 53.7547 39.55C53.188 39.8167 52.7214 40.1667 52.3547 40.6C51.988 41 51.7047 41.4667 51.5047 42C51.338 42.5 51.238 43.0167 51.2047 43.55L59.7547 42.15C59.6547 41.4833 59.288 40.8167 58.6547 40.15C58.0214 39.4833 57.088 39.15 55.8547 39.15ZM83.4961 32.95C84.8628 32.95 86.1961 33.15 87.4961 33.55C88.8294 33.9167 89.9794 34.4833 90.9461 35.25C91.9461 34.5833 93.0628 34.0333 94.2961 33.6C95.5628 33.1667 97.0794 32.95 98.8461 32.95C100.113 32.95 101.346 33.1167 102.546 33.45C103.779 33.7833 104.863 34.3167 105.796 35.05C106.763 35.75 107.529 36.7 108.096 37.9C108.663 39.0667 108.946 40.5 108.946 42.2V57.95C108.613 58.05 108.079 58.15 107.346 58.25C106.646 58.35 105.913 58.4 105.146 58.4C104.413 58.4 103.746 58.35 103.146 58.25C102.579 58.15 102.096 57.95 101.696 57.65C101.296 57.35 100.979 56.95 100.746 56.45C100.546 55.9167 100.446 55.2333 100.446 54.4V42.45C100.446 41.45 100.163 40.7333 99.5961 40.3C99.0294 39.8333 98.2628 39.6 97.2961 39.6C96.8294 39.6 96.3294 39.7167 95.7961 39.95C95.2628 40.15 94.8628 40.3667 94.5961 40.6C94.6294 40.7333 94.6461 40.8667 94.6461 41C94.6461 41.1 94.6461 41.2 94.6461 41.3V57.95C94.2794 58.05 93.7294 58.15 92.9961 58.25C92.2961 58.35 91.5794 58.4 90.8461 58.4C90.1128 58.4 89.4461 58.35 88.8461 58.25C88.2794 58.15 87.7961 57.95 87.3961 57.65C86.9961 57.35 86.6794 56.95 86.4461 56.45C86.2461 55.9167 86.1461 55.2333 86.1461 54.4V42.45C86.1461 41.45 85.8294 40.7333 85.1961 40.3C84.5961 39.8333 83.8628 39.6 82.9961 39.6C82.3961 39.6 81.8794 39.7 81.4461 39.9C81.0128 40.0667 80.6461 40.2333 80.3461 40.4V57.95C80.0128 58.05 79.4794 58.15 78.7461 58.25C78.0461 58.35 77.3128 58.4 76.5461 58.4C75.8128 58.4 75.1461 58.35 74.5461 58.25C73.9794 58.15 73.4961 57.95 73.0961 57.65C72.6961 57.35 72.3794 56.95 72.1461 56.45C71.9461 55.9167 71.8461 55.2333 71.8461 54.4V39.3C71.8461 38.4 72.0294 37.6833 72.3961 37.15C72.7961 36.6167 73.3294 36.1167 73.9961 35.65C75.1294 34.85 76.5294 34.2 78.1961 33.7C79.8961 33.2 81.6628 32.95 83.4961 32.95ZM114.131 34.05C114.465 33.95 114.981 33.85 115.681 33.75C116.415 33.65 117.165 33.6 117.931 33.6C118.665 33.6 119.315 33.65 119.881 33.75C120.481 33.85 120.981 34.05 121.381 34.35C121.781 34.65 122.081 35.0667 122.281 35.6C122.515 36.1 122.631 36.7667 122.631 37.6V48.35C122.631 49.7167 122.965 50.7 123.631 51.3C124.298 51.8667 125.265 52.15 126.531 52.15C127.298 52.15 127.915 52.0833 128.381 51.95C128.881 51.8167 129.265 51.6833 129.531 51.55V34.05C129.865 33.95 130.381 33.85 131.081 33.75C131.815 33.65 132.565 33.6 133.331 33.6C134.065 33.6 134.715 33.65 135.281 33.75C135.881 33.85 136.381 34.05 136.781 34.35C137.181 34.65 137.481 35.0667 137.681 35.6C137.915 36.1 138.031 36.7667 138.031 37.6V52.8C138.031 54.4667 137.331 55.7167 135.931 56.55C134.765 57.2833 133.365 57.8333 131.731 58.2C130.131 58.6 128.381 58.8 126.481 58.8C124.681 58.8 123.015 58.6 121.481 58.2C119.981 57.8 118.681 57.1833 117.581 56.35C116.481 55.5167 115.631 54.45 115.031 53.15C114.431 51.8167 114.131 50.2167 114.131 48.35V34.05ZM151.733 49.65C151.733 50.5167 151.999 51.1333 152.533 51.5C153.099 51.8667 153.883 52.05 154.883 52.05C155.383 52.05 155.899 52.0167 156.433 51.95C156.966 51.85 157.433 51.7333 157.833 51.6C158.133 51.9667 158.383 52.3833 158.583 52.85C158.816 53.2833 158.933 53.8167 158.933 54.45C158.933 55.7167 158.449 56.75 157.483 57.55C156.549 58.35 154.883 58.75 152.483 58.75C149.549 58.75 147.283 58.0833 145.683 56.75C144.116 55.4167 143.333 53.25 143.333 50.25V28.85C143.699 28.75 144.216 28.65 144.883 28.55C145.583 28.4167 146.316 28.35 147.083 28.35C148.549 28.35 149.683 28.6167 150.483 29.15C151.316 29.65 151.733 30.7333 151.733 32.4V35.6H158.283C158.483 35.9667 158.666 36.4333 158.833 37C159.033 37.5333 159.133 38.1333 159.133 38.8C159.133 39.9667 158.866 40.8167 158.333 41.35C157.833 41.85 157.149 42.1 156.283 42.1H151.733V49.65ZM163.052 26.95C163.052 25.6833 163.469 24.6167 164.302 23.75C165.169 22.8833 166.302 22.45 167.702 22.45C169.102 22.45 170.219 22.8833 171.052 23.75C171.919 24.6167 172.352 25.6833 172.352 26.95C172.352 28.2167 171.919 29.2833 171.052 30.15C170.219 31.0167 169.102 31.45 167.702 31.45C166.302 31.45 165.169 31.0167 164.302 30.15C163.469 29.2833 163.052 28.2167 163.052 26.95ZM171.952 57.95C171.586 58.0167 171.036 58.1 170.302 58.2C169.602 58.3333 168.886 58.4 168.152 58.4C167.419 58.4 166.752 58.35 166.152 58.25C165.586 58.15 165.102 57.95 164.702 57.65C164.302 57.35 163.986 56.95 163.752 56.45C163.552 55.9167 163.452 55.2333 163.452 54.4V34.05C163.819 33.9833 164.352 33.9 165.052 33.8C165.786 33.6667 166.519 33.6 167.252 33.6C167.986 33.6 168.636 33.65 169.202 33.75C169.802 33.85 170.302 34.05 170.702 34.35C171.102 34.65 171.402 35.0667 171.602 35.6C171.836 36.1 171.952 36.7667 171.952 37.6V57.95ZM176.014 37.65C176.28 36.3833 176.797 35.35 177.564 34.55C178.364 33.75 179.347 33.35 180.514 33.35C181.614 33.35 182.464 33.6167 183.064 34.15C183.664 34.6833 184.33 35.4333 185.064 36.4L188.264 40.6L193.614 33.35C195.447 33.35 196.897 33.6833 197.964 34.35C199.03 34.9833 199.564 35.85 199.564 36.95C199.564 37.3833 199.497 37.7833 199.364 38.15C199.264 38.4833 199.097 38.8333 198.864 39.2C198.63 39.5667 198.33 39.9833 197.964 40.45C197.597 40.9167 197.164 41.4667 196.664 42.1L193.364 45.8L199.914 54.45C199.747 55.7167 199.247 56.7167 198.414 57.45C197.58 58.1833 196.58 58.55 195.414 58.55C194.147 58.5167 193.13 58.15 192.364 57.45C191.63 56.75 190.914 55.9 190.214 54.9L187.514 51.05L182.414 58.4C182.247 58.4 182.064 58.4 181.864 58.4C181.664 58.4333 181.497 58.45 181.364 58.45C179.664 58.45 178.364 58.1 177.464 57.4C176.597 56.7 176.164 55.8333 176.164 54.8C176.164 54 176.347 53.3 176.714 52.7C177.114 52.0667 177.78 51.2167 178.714 50.15L182.714 45.5L176.014 37.65Z" fill="#742EC8"/>
</g>
<defs>
<clipPath id="clip0_9005_1486">
<rect width="248.556" height="85.7519" fill="white"/>
</clipPath>
</defs>
</svg>
