<svg width="750" height="500" viewBox="0 0 750 500" fill="none" xmlns="http://www.w3.org/2000/svg">
<g clip-path="url(#clip0_9071_65)">
<path d="M547.307 19.1905C559.817 15.1854 573.17 14.4091 586.283 15.1693C605.123 16.2613 624.703 20.9508 638.555 33.7655C647.284 41.8413 653.074 52.511 660.091 62.1129C680.446 89.9699 711.916 109.902 725.649 141.551C737.386 168.601 732.975 202.621 712.773 224.1C692.573 245.581 657.004 251.681 631.996 236.057C607.987 221.059 597.376 191.201 575.443 173.302C559.765 160.508 539.518 154.8 522.485 143.874C505.056 132.692 490.877 115.116 487.672 94.656C485.013 77.6742 491.126 59.2238 504.367 48.0511C517.321 37.1242 530.947 24.4278 547.307 19.1905Z" fill="#152F67"/>
<path d="M411.004 460.096C389.351 463.57 368.179 457.971 346.551 453.983C325.78 450.153 305.088 442.964 288.597 429.389C281.043 423.171 274.348 415.444 271.383 406.118C267.154 392.815 271.015 378.451 270.976 364.491C270.931 348.109 266.849 332.321 255.473 320.239C248.549 312.886 240.501 306.437 235.069 297.922C223.748 280.172 232.513 256.407 250.24 246.385C266.388 237.256 286.934 240.869 303.708 248.789C320.482 256.709 335.208 268.51 352.051 276.28C370.518 284.799 390.718 288.138 411.086 290.057C426.661 291.525 442.525 289.738 455.233 298.862C464.325 305.39 470.752 315.187 474.485 325.738C481.549 345.702 480.128 369.173 476.871 389.785C474.688 403.595 470.3 417.268 462.292 428.728C452.463 442.796 437.433 452.922 420.987 457.824C417.646 458.819 414.319 459.565 411.004 460.096Z" fill="#152F67"/>
<path d="M562.274 73.7092L587.194 137.067L640.29 107.099L562.274 73.7092Z" fill="#FAFAFA"/>
<path d="M562.274 73.7092L611.247 123.491L624.582 115.964L562.274 73.7092Z" fill="#D9D9D9"/>
<path d="M624.581 115.964L615.294 138.942L611.247 123.491L624.581 115.964Z" fill="#D9D9D9"/>
<path d="M615.294 138.942L603.835 127.674L611.247 123.491L615.294 138.942Z" fill="#E6DDDD"/>
<path d="M236.31 473.344C180.118 458.538 131.113 418.436 105.483 366.284C94.9065 344.763 88.1214 320.865 89.7118 296.939C91.3021 273.012 102.02 249.1 121.228 234.744C140.437 220.388 168.43 217.282 188.744 230.026C208.372 242.339 217.72 265.949 234.728 281.684C255.055 300.489 287.311 305.979 311.816 293.083C336.321 280.187 350.099 248.845 341.156 222.637C332.881 198.382 309.487 183.3 289.165 167.686C268.843 152.072 248.636 130.119 251.542 104.656C254.041 82.7727 273.315 66.3249 293.62 57.7886C332.494 41.4464 382.617 48.7116 409.109 81.5199C437.611 116.819 432.13 168.312 419.277 211.822C406.423 255.332 387.467 299.377 393.863 344.292C399.177 381.612 422.32 415.171 453.012 437.056C483.704 458.941 521.367 469.782 558.992 472.09C596.538 474.393 636.844 467.418 664.616 442.046C692.388 416.673 701.77 369.354 677.208 340.864C664.495 326.117 645.516 318.639 627.265 311.861C609.014 305.082 589.971 297.991 576.745 283.705C563.518 269.419 558.392 245.554 570.832 230.578C585.242 213.231 623.628 211.333 637.204 193.326C646.889 180.48 635.575 155.734 624.58 143.583" stroke="#F2C947" stroke-width="2.5409" stroke-miterlimit="10" stroke-dasharray="7.62 7.62"/>
<path d="M215.538 373.927C228.592 309.541 214.677 240.122 177.817 185.741" stroke="#742EC8" stroke-width="2.5409" stroke-miterlimit="10"/>
<path d="M523.329 376.059H203.412C196.556 376.059 191 370.502 191 363.648V158.412C191 151.556 196.558 146 203.412 146H523.329C530.184 146 535.74 151.558 535.74 158.412V363.648C535.74 370.503 530.184 376.059 523.329 376.059Z" fill="#101439"/>
<path d="M531.446 263.488C532.783 257.851 529.297 252.198 523.66 250.862C518.023 249.525 512.37 253.011 511.034 258.648C509.697 264.285 513.183 269.938 518.82 271.274C524.457 272.611 530.11 269.125 531.446 263.488Z" fill="#1C2363"/>
<path d="M198.341 299.927C196.507 299.927 195.02 298.44 195.02 296.605V225.453C195.02 223.618 196.507 222.131 198.341 222.131C200.176 222.131 201.663 223.618 201.663 225.453V296.605C201.663 298.44 200.176 299.927 198.341 299.927Z" fill="#1C2363"/>
<path d="M506.725 154.488H206.38V367.563H506.725V154.488Z" fill="#DCE8F4"/>
<path d="M506.72 154.493H206.384V168.814H506.72V154.493Z" fill="#A6AFB8"/>
<path d="M215.112 162.245H211.311V167.08H215.112V162.245Z" fill="#FC6047"/>
<path d="M220.051 158.877H216.249V167.08H220.051V158.877Z" fill="#FC6047"/>
<path d="M225.274 156.547H221.472V167.08H225.274V156.547Z" fill="#FC6047"/>
<path d="M482.858 157.413V158.112C482.858 158.667 482.408 159.117 481.852 159.117H480.733C480.178 159.117 479.728 159.567 479.728 160.122V163.181C479.728 163.735 480.178 164.185 480.733 164.185H481.852C482.408 164.185 482.858 164.635 482.858 165.19V165.889C482.858 166.444 483.308 166.894 483.863 166.894H499.509C500.065 166.894 500.514 166.444 500.514 165.889V157.41C500.514 156.856 500.064 156.406 499.509 156.406H483.863C483.308 156.408 482.858 156.858 482.858 157.413Z" fill="#DCE8F4"/>
<path d="M499.553 166.366H496.757C496.551 166.366 496.385 166.199 496.385 165.994V157.298C496.385 157.092 496.551 156.926 496.757 156.926H499.553C499.758 156.926 499.925 157.092 499.925 157.298V165.994C499.925 166.199 499.758 166.366 499.553 166.366Z" fill="#B7FC47"/>
<path d="M495.226 166.366H492.43C492.224 166.366 492.058 166.199 492.058 165.994V157.298C492.058 157.092 492.224 156.926 492.43 156.926H495.226C495.431 156.926 495.598 157.092 495.598 157.298V165.994C495.598 166.199 495.431 166.366 495.226 166.366Z" fill="#B7FC47"/>
<path d="M490.899 166.366H488.103C487.898 166.366 487.731 166.199 487.731 165.994V157.298C487.731 157.092 487.898 156.926 488.103 156.926H490.899C491.105 156.926 491.271 157.092 491.271 157.298V165.994C491.271 166.199 491.105 166.366 490.899 166.366Z" fill="#B7FC47"/>
<path d="M475.013 161.652C475.013 163.879 473.208 165.684 470.982 165.684C468.755 165.684 466.95 163.879 466.95 161.652C466.95 159.426 468.755 157.621 470.982 157.621C473.208 157.621 475.013 159.426 475.013 161.652Z" fill="#DCE8F4"/>
<path d="M487.73 184.896H225.372V351.149H487.73V184.896Z" fill="#C3CED9"/>
<path d="M487.73 184.896H225.372V199.231H487.73V184.896Z" fill="#A7B1BA"/>
<path d="M482.421 206.661H310.662V213.479H482.421V206.661Z" fill="#152F67"/>
<path d="M405.458 219.641H310.662V226.459H405.458V219.641Z" fill="#152F67"/>
<path d="M361.665 232.621H310.662V239.439H361.665V232.621Z" fill="#152F67"/>
<path d="M482.421 255.129H310.662V261.948H482.421V255.129Z" fill="#152F67"/>
<path d="M405.458 268.109H310.662V274.928H405.458V268.109Z" fill="#152F67"/>
<path d="M361.665 281.089H310.662V287.908H361.665V281.089Z" fill="#152F67"/>
<path d="M482.421 302.461H310.662V309.279H482.421V302.461Z" fill="#152F67"/>
<path d="M405.458 315.441H310.662V322.259H405.458V315.441Z" fill="#152F67"/>
<path d="M361.665 328.421H310.662V335.24H361.665V328.421Z" fill="#152F67"/>
<path d="M302.271 206.661H235.665V244.16H302.271V206.661Z" fill="#152F67"/>
<path d="M235.665 244.16L268.967 225.41L302.271 244.16H235.665Z" fill="#CEDAE6"/>
<path d="M302.271 206.661L268.967 225.41L235.665 206.661H302.271Z" fill="#CEDAE6"/>
<path d="M302.271 254.911H235.665V292.409H302.271V254.911Z" fill="#152F67"/>
<path d="M235.665 292.409L268.967 273.66L302.271 292.409H235.665Z" fill="#CEDAE6"/>
<path d="M302.271 254.911L268.967 273.66L235.665 254.911H302.271Z" fill="#CEDAE6"/>
<path d="M302.271 303.16H235.665V340.658H302.271V303.16Z" fill="#152F67"/>
<path d="M235.665 340.659L268.967 321.91L302.271 340.659H235.665Z" fill="#CEDAE6"/>
<path d="M302.271 303.16L268.967 321.91L235.665 303.16H302.271Z" fill="#CEDAE6"/>
<g opacity="0.44">
<path d="M313.704 154.488L206.38 261.823V168.03L219.932 154.488H313.704Z" fill="white"/>
<path d="M378.841 154.488L206.38 326.95V278.973L330.864 154.488H378.841Z" fill="white"/>
</g>
<g opacity="0.44">
<path d="M506.724 177.68V271.462L410.612 367.563H316.84L506.724 177.68Z" fill="white"/>
<path d="M506.724 288.613V336.59L475.74 367.563H427.773L506.724 288.613Z" fill="white"/>
</g>
<path d="M203.123 128.609C205.716 128.713 208.04 129.435 210.096 130.778C212.153 132.121 213.736 133.959 214.846 136.291C215.663 138.011 216.094 139.619 216.135 141.111C216.177 142.602 215.877 143.894 215.235 144.985C214.593 146.076 213.66 146.912 212.437 147.494C211.423 147.976 210.454 148.178 209.527 148.104C208.6 148.029 207.77 147.661 207.035 147.004C206.889 149.113 205.736 150.68 203.577 151.708C202.449 152.244 201.255 152.443 199.993 152.305C198.732 152.166 197.549 151.691 196.449 150.879C195.347 150.066 194.46 148.953 193.788 147.539C193.115 146.124 192.806 144.736 192.861 143.373C192.916 142.011 193.29 140.801 193.984 139.744C194.677 138.688 195.597 137.887 196.744 137.342C198.427 136.542 200.015 136.454 201.507 137.081L200.839 135.676L205.514 133.453L209.673 142.199C209.963 142.811 210.287 143.196 210.644 143.354C211.001 143.513 211.37 143.501 211.752 143.319C212.957 142.746 212.855 140.979 211.446 138.015C210.582 136.199 209.388 134.786 207.864 133.775C206.34 132.766 204.616 132.232 202.69 132.175C200.764 132.118 198.788 132.572 196.762 133.535C194.754 134.49 193.176 135.769 192.027 137.37C190.878 138.971 190.235 140.736 190.098 142.664C189.96 144.593 190.342 146.504 191.242 148.396C192.16 150.328 193.404 151.857 194.973 152.987C196.541 154.117 198.297 154.741 200.241 154.86C202.184 154.978 204.16 154.56 206.167 153.606C208.212 152.633 209.915 151.308 211.273 149.631L213.794 152.195C213.134 153.024 212.255 153.852 211.16 154.677C210.063 155.503 208.905 156.207 207.68 156.789C204.907 158.107 202.193 158.695 199.536 158.553C196.878 158.41 194.493 157.611 192.381 156.153C190.269 154.696 188.619 152.715 187.427 150.211C186.246 147.726 185.762 145.206 185.978 142.654C186.194 140.102 187.094 137.745 188.681 135.584C190.267 133.423 192.456 131.679 195.247 130.351C197.905 129.087 200.53 128.506 203.123 128.609ZM204.595 145.384C204.848 144.561 204.725 143.624 204.224 142.572C203.734 141.54 203.089 140.863 202.291 140.539C201.491 140.216 200.671 140.254 199.831 140.654C198.989 141.054 198.447 141.664 198.204 142.483C197.96 143.301 198.084 144.228 198.575 145.259C199.066 146.292 199.708 146.977 200.502 147.315C201.295 147.652 202.113 147.621 202.953 147.222C203.795 146.82 204.342 146.209 204.595 145.384Z" fill="#152F67"/>
<path d="M464.77 134.701L463.293 139.483L467.537 140.264L466.731 144.644L461.944 143.763L460.369 148.704L455.75 147.854L457.326 142.913L453.149 142.145L451.574 147.086L446.956 146.236L448.531 141.295L444.253 140.508L445.059 136.128L449.88 137.016L451.357 132.233L447.079 131.446L447.885 127.066L452.706 127.954L454.282 123.013L458.899 123.862L457.323 128.803L461.5 129.572L463.075 124.631L467.693 125.48L466.118 130.421L470.396 131.208L469.59 135.589L464.77 134.701ZM460.152 133.851L455.975 133.083L454.499 137.866L458.675 138.634L460.152 133.851Z" fill="#152F67"/>
<path d="M217.582 358.831H160.416C143.065 358.831 129 344.766 129 327.416C129 310.065 143.065 296 160.416 296H186.167C203.517 296 217.582 310.065 217.582 327.416V358.831Z" fill="#F2C947"/>
<path d="M173.291 303.662C160.194 303.662 149.538 314.318 149.538 327.415C149.538 340.513 160.194 351.169 173.291 351.169C186.39 351.169 197.044 340.513 197.044 327.415C197.044 314.317 186.39 303.662 173.291 303.662ZM152.603 327.415C152.603 325.824 152.8 324.281 153.143 322.791C154.228 322.293 156.219 321.48 159.022 320.746C158.39 324.321 158.155 328.326 158.727 332.549C156.845 332.058 154.897 331.459 152.898 330.756C152.72 329.666 152.603 328.556 152.603 327.415ZM162.158 320.042C167.394 319.049 174.52 318.588 183.146 320.194C183.971 324.296 184.369 329.03 183.643 333.896C178.163 334.844 170.767 335.165 161.871 333.287C161.006 328.471 161.338 323.938 162.158 320.042ZM186.365 320.884C188.648 321.426 191.024 322.116 193.487 322.974C193.802 324.406 193.98 325.889 193.98 327.415C193.98 328.607 193.857 329.768 193.662 330.906C192.556 331.429 190.218 332.412 186.807 333.242C187.315 328.884 187.023 324.662 186.365 320.884ZM192.348 319.364C190.047 318.633 187.82 318.038 185.679 317.57C184.844 314.114 183.78 311.195 182.911 309.117C187.12 311.336 190.48 314.957 192.348 319.364ZM178.801 307.495C179.321 308.502 181.05 312.04 182.379 316.935C174.636 315.633 168.092 315.909 162.996 316.734C164.366 312.177 166.198 308.913 166.907 307.747C168.92 307.092 171.062 306.727 173.291 306.727C175.202 306.727 177.044 307.008 178.801 307.495ZM162.401 309.858C161.516 311.82 160.53 314.38 159.755 317.368C157.629 317.857 155.848 318.415 154.442 318.932C156.141 315.174 158.927 312.021 162.401 309.858ZM153.805 334.298C155.703 334.913 157.542 335.421 159.333 335.855C160.075 339.001 161.312 342.228 163.189 345.452C158.851 343.012 155.49 339.051 153.805 334.298ZM168.194 347.442C165.454 343.809 163.695 340.143 162.651 336.577C167.04 337.419 171.076 337.769 174.691 337.769C177.76 337.769 180.524 337.525 182.98 337.156C182.074 340.675 180.505 344.195 178.016 347.538C176.496 347.895 174.919 348.103 173.292 348.103C171.53 348.104 169.828 347.858 168.194 347.442ZM182.814 345.763C184.505 342.737 185.611 339.632 186.265 336.553C188.908 335.977 191.05 335.289 192.637 334.679C190.832 339.47 187.313 343.418 182.814 345.763Z" fill="#152F67"/>
<path d="M449.507 54.1141C449.143 53.9763 448.779 53.8581 448.414 53.7582C448.314 53.3988 448.197 53.0382 448.059 52.6777C447.474 51.2297 446.707 49.7817 445.162 48.3337C443.618 49.7817 442.851 51.2297 442.265 52.6777C442.126 53.0405 442.008 53.4045 441.908 53.7674C441.545 53.8673 441.181 53.9855 440.818 54.1245C439.37 54.7101 437.922 55.4771 436.474 57.0216C437.922 58.566 439.37 59.333 440.818 59.9186C441.179 60.0564 441.538 60.1736 441.899 60.2735C441.999 60.6375 442.117 61.0015 442.255 61.3666C442.838 62.8146 443.609 64.2625 445.162 65.7105C446.716 64.2625 447.486 62.8146 448.07 61.3666C448.206 61.006 448.325 60.6443 448.423 60.2838C448.784 60.1839 449.146 60.0668 449.506 59.9301C450.954 59.3468 452.402 58.5763 453.85 57.0227C452.403 55.4679 450.955 54.6975 449.507 54.1141Z" fill="#152F67"/>
<path d="M58.6914 297.077C58.3274 296.939 57.9634 296.82 57.5982 296.721C57.4983 296.36 57.3812 296.001 57.2446 295.64C56.6589 294.192 55.8919 292.744 54.3475 291.296C52.8031 292.744 52.036 294.192 51.4504 295.64C51.3115 296.003 51.1932 296.367 51.0933 296.73C50.7304 296.83 50.3664 296.948 50.0036 297.087C48.5556 297.672 47.1076 298.44 45.6597 299.984C47.1076 301.528 48.5556 302.295 50.0036 302.881C50.363 303.019 50.7235 303.136 51.0841 303.236C51.184 303.6 51.3023 303.964 51.4401 304.329C52.0234 305.777 52.7939 307.225 54.3475 308.673C55.9011 307.225 56.6716 305.777 57.2549 304.329C57.3915 303.968 57.5098 303.607 57.6086 303.246C57.9691 303.147 58.3308 303.029 58.6914 302.893C60.1393 302.309 61.5873 301.539 63.0353 299.985C61.5873 298.431 60.1393 297.661 58.6914 297.077Z" fill="#152F67"/>
<path d="M479.454 226.732C479.09 226.594 478.726 226.476 478.362 226.376C478.262 226.016 478.145 225.656 478.007 225.296C477.423 223.848 476.655 222.4 475.11 220.952C473.566 222.4 472.799 223.848 472.213 225.296C472.075 225.659 471.956 226.023 471.856 226.386C471.493 226.485 471.129 226.604 470.766 226.743C469.318 227.328 467.87 228.095 466.422 229.64C467.87 231.184 469.318 231.952 470.766 232.537C471.127 232.675 471.486 232.792 471.847 232.892C471.947 233.256 472.065 233.62 472.203 233.984C472.786 235.432 473.557 236.88 475.11 238.328C476.664 236.88 477.434 235.432 478.018 233.984C478.154 233.623 478.272 233.261 478.371 232.901C478.732 232.801 479.094 232.684 479.454 232.547C480.902 231.964 482.35 231.193 483.798 229.64C482.35 228.087 480.902 227.316 479.454 226.732Z" fill="#152F67"/>
<path d="M630.595 76.6064C630.412 76.5375 630.23 76.4778 630.047 76.4284C629.998 76.2481 629.938 76.0679 629.87 75.8876C629.578 75.1619 629.192 74.4362 628.418 73.7104C627.644 74.4362 627.259 75.1619 626.965 75.8876C626.896 76.0701 626.837 76.2516 626.786 76.4341C626.604 76.4847 626.422 76.5432 626.24 76.6133C625.514 76.9061 624.788 77.2908 624.062 78.0658C624.788 78.8398 625.514 79.2244 626.24 79.5173C626.42 79.5862 626.6 79.6447 626.78 79.6952C626.831 79.8778 626.89 80.0604 626.958 80.243C627.251 80.9687 627.637 81.6944 628.416 82.4201C629.194 81.6944 629.58 80.9687 629.873 80.243C629.942 80.0615 630 79.8813 630.05 79.6998C630.231 79.6505 630.411 79.5907 630.593 79.523C631.318 79.2302 632.044 78.8444 632.77 78.0658C632.046 77.285 631.321 76.8992 630.595 76.6064Z" fill="#F2C947"/>
<path d="M675.325 205.879C675.142 205.81 674.96 205.75 674.777 205.699C674.728 205.519 674.668 205.339 674.6 205.159C674.307 204.433 673.922 203.707 673.148 202.981C672.374 203.707 671.989 204.433 671.696 205.159C671.626 205.341 671.568 205.523 671.517 205.705C671.335 205.756 671.153 205.815 670.971 205.884C670.245 206.177 669.519 206.562 668.793 207.337C669.519 208.111 670.245 208.495 670.971 208.788C671.151 208.857 671.331 208.916 671.513 208.966C671.563 209.149 671.622 209.331 671.692 209.514C671.984 210.24 672.37 210.965 673.149 211.691C673.927 210.965 674.313 210.24 674.606 209.514C674.675 209.333 674.733 209.152 674.783 208.971C674.963 208.92 675.145 208.862 675.326 208.794C676.052 208.501 676.777 208.115 677.503 207.337C676.776 206.557 676.051 206.171 675.325 205.879Z" fill="#F2C947"/>
<path d="M673.62 202.851C673.437 202.782 673.254 202.722 673.072 202.672C673.023 202.491 672.963 202.311 672.894 202.131C672.6 201.405 672.215 200.679 671.441 199.954C670.667 200.679 670.283 201.405 669.989 202.131C669.92 202.313 669.86 202.495 669.81 202.677C669.627 202.728 669.446 202.786 669.263 202.856C668.537 203.149 667.812 203.534 667.086 204.308C667.812 205.082 668.537 205.466 669.263 205.759C669.443 205.828 669.624 205.887 669.804 205.937C669.854 206.12 669.913 206.302 669.983 206.485C670.276 207.211 670.662 207.936 671.44 208.662C672.219 207.936 672.604 207.211 672.897 206.485C672.966 206.304 673.025 206.123 673.075 205.942C673.256 205.892 673.437 205.833 673.618 205.765C674.344 205.472 675.07 205.086 675.796 204.308C675.071 203.529 674.345 203.142 673.62 202.851Z" fill="#F2C947"/>
<path d="M149.274 242.352C149.091 242.283 148.909 242.224 148.726 242.173C148.675 241.993 148.617 241.812 148.548 241.632C148.254 240.906 147.871 240.181 147.097 239.455C146.323 240.181 145.938 240.906 145.644 241.632C145.575 241.815 145.515 241.996 145.465 242.179C145.282 242.229 145.101 242.288 144.918 242.358C144.193 242.652 143.467 243.035 142.741 243.809C143.467 244.583 144.193 244.968 144.918 245.262C145.099 245.331 145.279 245.389 145.46 245.44C145.51 245.622 145.569 245.805 145.638 245.988C145.931 246.713 146.317 247.439 147.095 248.165C147.874 247.439 148.26 246.713 148.553 245.988C148.622 245.807 148.68 245.626 148.729 245.444C148.911 245.395 149.091 245.335 149.273 245.268C149.998 244.975 150.724 244.589 151.45 243.81C150.725 243.032 149.999 242.645 149.274 242.352Z" fill="#152F67"/>
<path d="M69.4391 471.887C69.2565 471.818 69.0739 471.758 68.8913 471.708C68.8408 471.527 68.7823 471.347 68.7134 471.167C68.4206 470.441 68.0359 469.715 67.262 468.99C66.488 469.715 66.1033 470.441 65.8105 471.167C65.7416 471.349 65.6819 471.531 65.6314 471.713C65.4488 471.764 65.2674 471.823 65.0848 471.893C64.3591 472.185 63.6334 472.571 62.9077 473.345C63.6334 474.119 64.3591 474.504 65.0848 474.797C65.2651 474.865 65.4454 474.924 65.6257 474.973C65.6762 475.156 65.7348 475.339 65.8048 475.521C66.0976 476.247 66.4834 476.973 67.262 477.698C68.0405 476.973 68.4263 476.247 68.7191 475.521C68.788 475.34 68.8466 475.159 68.8959 474.978C69.0774 474.929 69.2576 474.87 69.4391 474.801C70.1648 474.508 70.8905 474.123 71.6162 473.344C70.8905 472.565 70.1636 472.18 69.4391 471.887Z" fill="#152F67"/>
<path d="M378.394 127.141C378.211 127.072 378.029 127.012 377.846 126.961C377.797 126.781 377.737 126.601 377.668 126.421C377.375 125.695 376.99 124.969 376.217 124.243C375.443 124.969 375.058 125.695 374.765 126.421C374.696 126.603 374.637 126.785 374.586 126.967C374.403 127.018 374.222 127.076 374.039 127.146C373.314 127.439 372.588 127.824 371.862 128.598C372.588 129.372 373.314 129.756 374.039 130.049C374.22 130.118 374.4 130.177 374.58 130.227C374.631 130.41 374.689 130.592 374.759 130.775C375.052 131.5 375.438 132.226 376.217 132.952C376.995 132.226 377.381 131.5 377.674 130.775C377.743 130.593 377.801 130.413 377.851 130.232C378.032 130.182 378.212 130.124 378.392 130.055C379.118 129.762 379.844 129.376 380.57 128.598C379.845 127.819 379.119 127.433 378.394 127.141Z" fill="#152F67"/>
<path d="M167.514 53.2357C167.331 53.1668 167.149 53.1071 166.966 53.0566C166.917 52.8763 166.857 52.696 166.788 52.5157C166.494 51.79 166.11 51.0643 165.336 50.3386C164.562 51.0643 164.177 51.79 163.884 52.5157C163.815 52.6983 163.756 52.8797 163.705 53.0623C163.523 53.1128 163.341 53.1714 163.159 53.2414C162.433 53.5343 161.707 53.9189 160.981 54.6929C161.707 55.4668 162.433 55.8515 163.159 56.1443C163.339 56.2132 163.519 56.2717 163.701 56.3223C163.751 56.5048 163.81 56.6874 163.88 56.87C164.172 57.5957 164.558 58.3214 165.337 59.0471C166.115 58.3214 166.501 57.5957 166.794 56.87C166.863 56.6885 166.921 56.5083 166.971 56.3268C167.152 56.2775 167.333 56.2178 167.514 56.15C168.24 55.8572 168.965 55.4714 169.691 54.6929C168.965 53.9143 168.241 53.5285 167.514 53.2357Z" fill="#152F67"/>
<path d="M618.158 249.003C617.976 248.934 617.793 248.874 617.611 248.824C617.561 248.644 617.501 248.463 617.433 248.283C617.14 247.557 616.755 246.832 615.981 246.106C615.207 246.832 614.823 247.557 614.529 248.283C614.46 248.466 614.4 248.647 614.349 248.83C614.167 248.88 613.985 248.939 613.803 249.009C613.077 249.303 612.351 249.686 611.626 250.461C612.351 251.235 613.077 251.62 613.803 251.913C613.983 251.982 614.163 252.04 614.344 252.091C614.394 252.273 614.453 252.456 614.523 252.638C614.816 253.364 615.201 254.09 615.98 254.816C616.758 254.09 617.144 253.364 617.437 252.638C617.506 252.457 617.565 252.277 617.614 252.095C617.794 252.046 617.976 251.986 618.157 251.918C618.883 251.626 619.608 251.24 620.334 250.461C619.61 249.682 618.884 249.296 618.158 249.003Z" fill="#152F67"/>
<path d="M402.675 172.958C402.493 172.889 402.31 172.829 402.127 172.779C402.077 172.598 402.018 172.418 401.949 172.238C401.657 171.512 401.272 170.786 400.498 170.061C399.724 170.786 399.339 171.512 399.045 172.238C398.977 172.42 398.917 172.602 398.866 172.784C398.685 172.835 398.502 172.893 398.32 172.963C397.594 173.256 396.868 173.641 396.143 174.415C396.868 175.189 397.594 175.573 398.32 175.867C398.5 175.936 398.68 175.995 398.861 176.045C398.911 176.228 398.97 176.41 399.04 176.593C399.332 177.319 399.718 178.044 400.497 178.77C401.275 178.044 401.661 177.319 401.954 176.593C402.023 176.412 402.081 176.231 402.131 176.05C402.312 176.001 402.493 175.941 402.674 175.873C403.4 175.58 404.125 175.194 404.851 174.416C404.127 173.636 403.401 173.25 402.675 172.958Z" fill="#F2C947"/>
<path d="M320.584 86.7995C320.264 86.6778 319.943 86.5745 319.623 86.486C319.536 86.1691 319.432 85.8534 319.312 85.5364C318.797 84.263 318.122 82.9907 316.765 81.7173C315.408 82.9907 314.733 84.263 314.218 85.5364C314.096 85.8557 313.992 86.1749 313.904 86.4941C313.584 86.5825 313.265 86.6859 312.946 86.8076C311.674 87.322 310.4 87.9972 309.127 89.3544C310.4 90.7117 311.672 91.3869 312.946 91.9013C313.263 92.0219 313.579 92.1252 313.895 92.2125C313.984 92.5328 314.087 92.8532 314.209 93.1724C314.722 94.4459 315.4 95.7181 316.765 96.9916C318.13 95.7193 318.808 94.4459 319.321 93.1724C319.442 92.8555 319.545 92.5374 319.632 92.2205C319.949 92.1332 320.267 92.0299 320.584 91.9093C321.856 91.3961 323.13 90.7186 324.403 89.3533C323.13 87.9903 321.858 87.3128 320.584 86.7995Z" fill="#152F67"/>
<path d="M125.644 179.51C125.323 179.388 125.003 179.285 124.682 179.196C124.595 178.879 124.492 178.564 124.371 178.247C123.857 176.973 123.182 175.701 121.824 174.427C120.467 175.7 119.792 176.973 119.278 178.247C119.156 178.566 119.051 178.885 118.964 179.204C118.645 179.293 118.326 179.396 118.006 179.518C116.733 180.032 115.461 180.707 114.187 182.065C115.46 183.422 116.733 184.097 118.006 184.611C118.323 184.732 118.639 184.835 118.956 184.923C119.043 185.243 119.148 185.563 119.269 185.883C119.783 187.156 120.46 188.428 121.826 189.702C123.191 188.428 123.868 187.156 124.382 185.883C124.502 185.566 124.605 185.248 124.693 184.931C125.01 184.843 125.328 184.74 125.645 184.62C126.918 184.106 128.19 183.429 129.464 182.063C128.189 180.699 126.916 180.023 125.644 179.51Z" fill="#152F67"/>
<path d="M537.659 148.666C537.338 148.544 537.018 148.441 536.699 148.353C536.612 148.036 536.508 147.72 536.388 147.403C535.873 146.131 535.198 144.857 533.841 143.585C532.484 144.857 531.808 146.131 531.294 147.403C531.172 147.722 531.068 148.041 530.98 148.361C530.661 148.449 530.342 148.552 530.023 148.674C528.749 149.189 527.477 149.864 526.204 151.221C527.477 152.578 528.749 153.253 530.023 153.768C530.34 153.888 530.655 153.992 530.972 154.079C531.061 154.399 531.164 154.72 531.286 155.04C531.799 156.312 532.477 157.586 533.842 158.858C535.207 157.586 535.885 156.312 536.398 155.04C536.519 154.723 536.622 154.405 536.709 154.088C537.026 154.001 537.344 153.898 537.661 153.777C538.934 153.264 540.207 152.586 541.48 151.221C540.204 149.857 538.932 149.179 537.659 148.666Z" fill="#F2C947"/>
<path d="M728.488 105.771C728.167 105.649 727.847 105.546 727.526 105.458C727.439 105.141 727.336 104.825 727.215 104.508C726.701 103.236 726.026 101.962 724.668 100.689C723.311 101.961 722.636 103.235 722.122 104.508C722 104.827 721.895 105.147 721.808 105.466C721.489 105.554 721.17 105.658 720.85 105.779C719.577 106.294 718.305 106.969 717.031 108.326C718.305 109.683 719.577 110.359 720.85 110.873C721.167 110.994 721.483 111.097 721.8 111.184C721.887 111.505 721.992 111.825 722.114 112.145C722.627 113.418 723.304 114.691 724.67 115.963C726.035 114.691 726.712 113.418 727.226 112.145C727.346 111.828 727.45 111.51 727.537 111.193C727.854 111.106 728.172 111.003 728.489 110.882C729.761 110.369 731.034 109.691 732.307 108.326C731.033 106.962 729.76 106.284 728.488 105.771Z" fill="#F2C947"/>
<path d="M528.274 46.8283C527.954 46.7066 527.633 46.6033 527.314 46.5149C527.227 46.1979 527.123 45.8822 527.003 45.5652C526.488 44.2918 525.813 43.0195 524.456 41.7461C523.099 43.0195 522.424 44.2918 521.909 45.5652C521.787 45.8845 521.683 46.2037 521.596 46.5229C521.276 46.6113 520.957 46.7147 520.637 46.8364C519.365 47.3508 518.091 48.026 516.819 49.3832C518.092 50.7405 519.365 51.4157 520.637 51.9301C520.954 52.0507 521.27 52.154 521.586 52.2413C521.675 52.5616 521.778 52.882 521.9 53.2024C522.413 54.4747 523.091 55.7481 524.456 57.0204C525.821 55.7481 526.499 54.4747 527.012 53.2024C527.133 52.8855 527.236 52.5674 527.323 52.2505C527.64 52.1632 527.958 52.0599 528.275 51.9393C529.549 51.426 530.821 50.7485 532.094 49.3832C530.82 48.0191 529.546 47.3416 528.274 46.8283Z" fill="#F2C947"/>
</g>
<defs>
<clipPath id="clip0_9071_65">
<rect width="750" height="500" fill="white"/>
</clipPath>
</defs>
</svg>
