<svg width="750" height="500" viewBox="0 0 750 500" fill="none" xmlns="http://www.w3.org/2000/svg">
<g clip-path="url(#clip0_9029_2)">
<path d="M547.307 19.1906C559.817 15.1854 573.17 14.4092 586.283 15.1694C605.123 16.2614 624.703 20.9509 638.555 33.7656C647.284 41.8414 653.074 52.5111 660.091 62.1129C680.446 89.9699 711.916 109.902 725.649 141.551C737.386 168.601 732.975 202.621 712.773 224.1C692.573 245.581 657.004 251.681 631.996 236.057C607.987 221.059 597.376 191.201 575.443 173.302C559.765 160.508 539.518 154.8 522.485 143.874C505.056 132.692 490.877 115.116 487.672 94.656C485.013 77.6743 491.126 59.2239 504.367 48.0512C517.321 37.1243 530.947 24.4279 547.307 19.1906Z" fill="#D9C8ED"/>
<path d="M656.114 227.096C634.461 230.57 613.289 224.971 591.662 220.983C570.891 217.153 550.199 209.964 533.707 196.389C526.153 190.171 519.459 182.444 516.494 173.118C512.265 159.815 516.125 145.451 516.086 131.491C516.041 115.109 511.959 99.3215 500.583 87.2394C493.659 79.8858 485.611 73.4372 480.18 64.9216C468.859 47.1716 477.624 23.4071 495.351 13.385C511.499 4.25621 532.045 7.86867 548.819 15.7894C565.593 23.709 580.318 35.5098 597.162 43.2802C615.628 51.7992 635.829 55.1383 656.197 57.0571C671.772 58.5246 687.635 56.7379 700.343 65.862C709.435 72.3899 715.862 82.187 719.595 92.7384C726.659 112.702 725.239 136.173 721.981 156.785C719.798 170.595 715.411 184.268 707.403 195.728C697.574 209.796 682.544 219.922 666.097 224.824C662.757 225.819 659.429 226.565 656.114 227.096Z" fill="#A76AF0"/>
<path d="M622.024 493H118.44C80.4166 463.977 53.9984 422.574 46.8619 375.276C43.8936 355.607 45.5827 332.317 61.6114 320.538C86.2613 302.424 123.253 325.263 151.101 312.606C169.04 304.452 177.881 283.269 178.065 263.564C178.251 243.86 171.594 224.841 166.609 205.776C161.625 186.712 158.339 166.125 165.074 147.607C171.809 129.088 191.637 114.063 210.719 118.979C227.071 123.192 237.448 139.759 253.119 146.053C269.43 152.603 288.364 146.644 302.841 136.676C317.318 126.709 328.841 113.066 342.374 101.849C366.129 82.156 397.508 70.0877 428.02 74.6853C458.533 79.283 486.763 102.926 491.527 133.412C495.423 158.352 484.934 187.169 500.219 207.257C517.454 229.906 553.503 223.548 578.418 237.304C598.7 248.504 609.522 274.456 603.203 296.747C596.751 319.509 574.825 338.611 578.396 361.999C580.955 378.766 595.82 390.347 606.291 403.69C626.414 429.333 635.518 463.328 622.024 493Z" fill="#D9C8ED"/>
<path d="M598.384 493H166.933C153.813 481.041 139.09 470.029 131.637 453.915C124.185 437.803 124.205 416.869 136.461 404.026C151.254 388.527 175.981 390.642 196.785 385.514C220.774 379.6 242.592 360.332 245.664 335.816C249.631 304.164 223.118 275.246 224.771 243.389C226.075 218.278 247.388 195.712 272.384 192.98C289.281 191.132 306.809 197.326 323.133 192.585C338.267 188.191 349.182 175.352 362.335 166.672C377.771 156.486 397.477 152.058 415.265 157.123C433.053 162.188 448.106 177.573 450.503 195.912C453.051 215.413 442.441 237.564 453.694 253.693C462.076 265.706 478.8 268.026 493.441 267.558C508.083 267.089 523.697 265.125 536.566 272.125C548.532 278.634 555.649 292.104 556.983 305.661C558.317 319.217 554.535 332.83 548.952 345.256C544.073 356.114 537.787 366.384 534.117 377.708C530.448 389.032 529.69 402.04 535.669 412.334C541.961 423.17 554.169 428.799 564.119 436.416C581.705 449.873 597.066 470.895 598.384 493Z" fill="#A76AF0"/>
<path d="M562.274 73.7093L587.194 137.067L640.29 107.099L562.274 73.7093Z" fill="#FAFAFA"/>
<path d="M562.274 73.7093L611.247 123.491L624.582 115.964L562.274 73.7093Z" fill="#D9D9D9"/>
<path d="M624.582 115.964L615.294 138.943L611.247 123.491L624.582 115.964Z" fill="#D9D9D9"/>
<path d="M615.294 138.943L603.835 127.675L611.247 123.491L615.294 138.943Z" fill="#E6DDDD"/>
<path d="M236.31 473.344C180.119 458.538 131.113 418.436 105.483 366.284C94.9066 344.763 88.1215 320.865 89.7118 296.939C91.3022 273.012 102.02 249.099 121.228 234.744C140.437 220.388 168.43 217.282 188.744 230.026C208.372 242.338 217.72 265.949 234.728 281.684C255.055 300.489 287.311 305.979 311.816 293.083C336.321 280.187 350.099 248.845 341.156 222.636C332.881 198.382 309.487 183.3 289.165 167.686C268.843 152.072 248.636 130.119 251.542 104.656C254.041 82.7726 273.316 66.3248 293.62 57.7886C332.494 41.4464 382.617 48.7115 409.109 81.5199C437.611 116.819 432.13 168.312 419.277 211.822C406.423 255.332 387.467 299.376 393.863 344.292C399.177 381.612 422.32 415.171 453.012 437.056C483.704 458.941 521.367 469.782 558.992 472.09C596.539 474.393 636.844 467.418 664.616 442.046C692.388 416.673 701.771 369.354 677.208 340.863C664.495 326.117 645.516 318.639 627.265 311.86C609.014 305.082 589.972 297.991 576.745 283.705C563.518 269.419 558.392 245.554 570.832 230.578C585.242 213.231 623.628 211.333 637.204 193.326C646.889 180.48 635.575 155.734 624.58 143.583" stroke="#7400FF" stroke-width="2.5409" stroke-miterlimit="10" stroke-dasharray="7.62 7.62"/>
<path d="M205.046 406.871C180.765 390.923 159.117 370.977 141.24 348.078C133.748 338.481 126.861 328.273 122.316 316.976C117.771 305.68 115.658 293.179 117.892 281.21C119.493 272.625 124.162 263.691 132.452 260.945C138.928 258.801 146.243 261.032 151.637 265.209C157.03 269.385 160.815 275.271 164.163 281.215C177.083 304.15 185.013 329.478 194.566 354.007C199.151 365.778 204.156 377.421 210.241 388.503C213.265 394.009 216.544 399.379 220.166 404.514C223.446 409.166 229.41 414.175 231.473 419.197C226.753 422.948 209.45 409.763 205.046 406.871Z" fill="#9C6BD8"/>
<path d="M136.681 273.968C148.553 324.287 176.445 370.699 215.307 404.799" stroke="#F5FFFF" stroke-width="2.0199" stroke-miterlimit="10"/>
<path d="M528.284 407.121C549.137 396.999 568.318 383.441 584.817 367.16C591.733 360.336 598.231 352.966 602.99 344.495C607.748 336.025 610.704 326.35 610.169 316.649C609.784 309.691 607.009 302.142 600.731 299.117C595.827 296.755 589.809 297.768 585.111 300.518C580.413 303.268 576.814 307.537 573.554 311.896C560.973 328.716 552.094 347.943 542.012 366.369C537.174 375.212 532.015 383.91 526.061 392.054C523.103 396.101 519.956 400.013 516.562 403.704C513.488 407.047 508.253 410.397 506.105 414.16C509.456 417.611 524.503 408.957 528.284 407.121Z" fill="#9C6BD8"/>
<path d="M596.047 308.986C581.479 347.583 554.636 381.44 520.38 404.427" stroke="#F5FFFF" stroke-width="1.6117" stroke-miterlimit="10"/>
<path d="M215.538 373.927C228.592 309.541 214.677 240.122 177.817 185.741" stroke="#742EC8" stroke-width="2.5409" stroke-miterlimit="10"/>
<path d="M181.681 192.107C171.16 188.664 161.954 181.345 156.228 171.869C150.501 162.394 148.301 150.841 150.144 139.924C161.309 142.918 171.796 149.853 177.743 159.765C183.689 169.677 184.296 180.849 181.681 192.107Z" fill="#742EC8"/>
<path d="M193.43 212.951C191.02 204.749 191.652 195.69 195.177 187.902C198.702 180.115 205.091 173.662 212.844 170.061C215.823 178.474 215.995 188.18 212.288 196.3C208.582 204.418 201.738 209.69 193.43 212.951Z" fill="#742EC8"/>
<path d="M194.175 212.175C187.736 206.552 179.246 203.332 170.697 203.271C162.148 203.211 153.613 206.312 147.097 211.844C153.49 218.072 162.232 222.293 171.157 222.326C180.082 222.361 187.735 218.353 194.175 212.175Z" fill="#742EC8"/>
<path d="M206.691 246.023C205.747 237.527 207.947 228.717 212.775 221.663C217.604 214.609 225.019 209.368 233.281 207.173C234.747 215.976 233.226 225.564 228.162 232.913C223.097 240.261 215.44 244.261 206.691 246.023Z" fill="#742EC8"/>
<path d="M207.56 245.388C202.2 238.729 194.4 234.079 185.993 232.53C177.585 230.981 168.642 232.546 161.26 236.859C166.47 244.106 174.343 249.786 183.126 251.374C191.907 252.963 200.141 250.351 207.56 245.388Z" fill="#742EC8"/>
<path d="M215.469 279.106C215.267 270.559 218.226 261.975 223.649 255.367C229.073 248.758 236.917 244.184 245.338 242.715C246.034 251.613 243.683 261.032 237.998 267.913C232.314 274.793 224.338 278.111 215.469 279.106Z" fill="#742EC8"/>
<path d="M216.389 278.549C211.628 271.448 204.263 266.138 196.022 263.864C187.782 261.589 178.735 262.371 171.006 266.025C175.566 273.698 182.915 280.041 191.525 282.388C200.137 284.733 208.568 282.847 216.389 278.549Z" fill="#742EC8"/>
<path d="M220.55 315.51C221.679 307.037 225.934 299.015 232.319 293.33C238.703 287.645 247.163 284.343 255.709 284.201C255.013 293.099 251.23 302.039 244.544 307.953C237.862 313.867 229.467 315.905 220.55 315.51Z" fill="#742EC8"/>
<path d="M221.546 315.102C217.946 307.349 211.495 300.958 203.707 297.431C195.92 293.904 186.862 293.271 178.659 295.679C181.972 303.966 188.246 311.375 196.388 315.031C204.531 318.687 213.151 318.133 221.546 315.102Z" fill="#742EC8"/>
<path d="M519.553 396.125C505.426 331.967 518.177 262.325 554.123 207.336" stroke="#742EC8" stroke-width="2.5409" stroke-miterlimit="10"/>
<path d="M550.367 213.765C560.83 210.146 569.911 202.674 575.478 193.104C581.045 183.534 583.052 171.946 581.027 161.062C569.914 164.241 559.544 171.351 553.764 181.361C547.984 191.371 547.564 202.551 550.367 213.765Z" fill="#742EC8"/>
<path d="M538.967 234.801C541.239 226.56 540.457 217.514 536.802 209.785C533.147 202.057 526.651 195.712 518.84 192.241C516.002 200.702 515.992 210.411 519.834 218.467C523.675 226.523 530.605 231.68 538.967 234.801Z" fill="#742EC8"/>
<path d="M538.21 234.038C544.554 228.308 552.989 224.946 561.536 224.744C570.082 224.54 578.668 227.497 585.276 232.92C578.988 239.254 570.318 243.621 561.395 243.804C552.47 243.986 544.752 240.108 538.21 234.038Z" fill="#742EC8"/>
<path d="M526.261 268.091C527.064 259.58 524.715 250.808 519.77 243.835C514.824 236.862 507.321 231.746 499.024 229.689C497.705 238.516 499.386 248.077 504.573 255.34C509.76 262.604 517.483 266.475 526.261 268.091Z" fill="#742EC8"/>
<path d="M525.381 267.471C530.63 260.723 538.35 255.943 546.73 254.254C555.11 252.565 564.079 253.981 571.533 258.169C566.445 265.501 558.667 271.313 549.913 273.048C541.159 274.783 532.882 272.308 525.381 267.471Z" fill="#742EC8"/>
<path d="M518.037 301.316C518.096 292.768 514.994 284.233 509.461 277.717C503.927 271.2 496.009 266.756 487.563 265.429C487.017 274.337 489.523 283.716 495.323 290.5C501.122 297.285 509.152 300.468 518.037 301.316Z" fill="#742EC8"/>
<path d="M517.107 300.774C521.748 293.595 529.024 288.161 537.226 285.75C545.427 283.339 554.485 283.968 562.274 287.492C557.843 295.239 550.602 301.705 542.031 304.195C533.461 306.686 525 304.941 517.107 300.774Z" fill="#742EC8"/>
<path d="M513.565 337.8C512.295 329.346 507.905 321.397 501.426 315.82C494.948 310.243 486.434 307.082 477.886 307.084C478.73 315.969 482.663 324.844 489.445 330.645C496.229 336.446 504.656 338.343 513.565 337.8Z" fill="#742EC8"/>
<path d="M512.563 337.409C516.033 329.597 522.376 323.099 530.103 319.442C537.83 315.786 546.877 315.001 555.118 317.272C551.944 325.614 545.795 333.126 537.715 336.917C529.636 340.708 521.007 340.3 512.563 337.409Z" fill="#742EC8"/>
<path d="M205.39 439.329C208.956 432.838 213.692 426.83 216.805 420.151C208.504 409.61 198.544 400.138 188.1 391.834C181.273 386.405 174.148 381.319 166.786 376.577C160.033 381.949 153.28 387.321 146.527 392.693C147.71 383.318 148.39 375.16 149.371 366.269C134.375 358.138 118.59 351.403 102.326 346.271C98.5765 352.313 95.3797 358.725 90.3376 363.902C90.4157 356.978 89.752 349.749 88.8093 342.403C73.775 338.535 58.4272 336.015 43.0048 335.003C42.9531 341.231 43.3183 347.451 44.036 353.629C48.0652 352.416 51.1862 349.016 55.4544 348.377C52.6388 355.193 50.0942 362.687 46.7459 369.608C50.4192 386.05 56.7083 401.92 65.2881 416.431C72.3879 412.253 79.041 406.505 87.6002 402.95C86.1097 416.034 86.0844 429.721 84.9557 442.954C89.4638 447.857 94.2796 452.476 99.4021 456.747C108.418 464.263 118.311 470.681 128.791 475.94C130.916 467.832 133.116 459.754 138.38 452.943C144.58 464.725 151.298 475.224 156.923 486.868C180.383 493.529 205.352 494.896 229.312 490.305C233.278 489.545 236.603 483.197 237.835 479.352C239.067 475.506 238.83 471.349 238.274 467.35C236.525 454.771 231.849 443.055 225.273 432.278C218.27 433.939 211.184 435.89 205.39 439.329Z" fill="#742EC8"/>
<path d="M212.101 478.105C156.95 445.669 106.525 405.212 62.9066 358.402" stroke="#F2FCFF" stroke-width="2.5409" stroke-miterlimit="10"/>
<path d="M531.269 452.314C527.921 447.864 523.755 443.899 520.726 439.261C525.779 430.53 532.18 422.417 539.066 415.122C543.568 410.352 548.328 405.807 553.3 401.491C558.899 404.768 564.5 408.045 570.098 411.322C568.218 404.472 566.841 398.472 565.161 391.96C575.454 384.307 586.483 377.61 598.04 372.055C601.476 376.152 604.539 380.582 608.845 383.897C608.048 378.753 607.77 373.301 607.687 367.734C618.464 363.25 629.618 359.736 640.987 357.337C641.69 361.966 642.082 366.634 642.207 371.31C639.08 370.838 636.394 368.64 633.149 368.621C635.971 373.393 638.665 378.699 641.896 383.493C640.917 396.122 637.931 408.606 633.095 420.32C627.365 417.967 621.8 414.401 615.05 412.669C617.555 422.247 619.035 432.432 621.288 442.16C618.457 446.291 615.366 450.243 612.009 453.968C606.101 460.525 599.424 466.357 592.185 471.39C589.737 465.582 587.239 459.805 582.594 455.298C579.238 464.728 575.359 473.259 572.415 482.527C555.666 489.988 537.228 493.671 518.906 492.812C515.874 492.669 512.721 488.3 511.393 485.57C510.066 482.839 509.799 479.72 509.786 476.684C509.744 467.135 511.974 457.917 515.718 449.193C521.108 449.678 526.589 450.374 531.269 452.314Z" fill="#742EC8"/>
<path d="M530.413 481.89C567.997 451.863 601.207 416.37 628.674 376.875" stroke="#F2FCFF" stroke-width="1.9105" stroke-miterlimit="10"/>
<path d="M526.391 493H206.474C199.618 493 194.062 487.442 194.062 480.588V275.352C194.062 268.497 199.62 262.941 206.474 262.941H526.391C533.246 262.941 538.802 268.498 538.802 275.352V480.588C538.802 487.443 533.246 493 526.391 493Z" fill="#101439"/>
<path d="M534.508 380.428C535.845 374.792 532.358 369.139 526.722 367.802C521.085 366.466 515.432 369.952 514.096 375.589C512.759 381.225 516.245 386.878 521.882 388.215C527.519 389.551 533.172 386.065 534.508 380.428Z" fill="#1C2363"/>
<path d="M201.403 416.867C199.569 416.867 198.082 415.38 198.082 413.545V342.394C198.082 340.559 199.569 339.072 201.403 339.072C203.238 339.072 204.725 340.559 204.725 342.394V413.545C204.725 415.38 203.238 416.867 201.403 416.867Z" fill="#1C2363"/>
<path d="M509.787 271.429H209.442V484.504H509.787V271.429Z" fill="#DCE8F4"/>
<path d="M509.782 271.434H209.445V285.755H509.782V271.434Z" fill="#A6AFB8"/>
<path d="M218.174 279.185H214.373V284.021H218.174V279.185Z" fill="#FC6047"/>
<path d="M223.113 275.817H219.311V284.021H223.113V275.817Z" fill="#FC6047"/>
<path d="M228.336 273.488H224.534V284.021H228.336V273.488Z" fill="#FC6047"/>
<path d="M485.92 274.353V275.053C485.92 275.607 485.47 276.057 484.914 276.057H483.795C483.24 276.057 482.79 276.507 482.79 277.062V280.121C482.79 280.676 483.24 281.126 483.795 281.126H484.914C485.47 281.126 485.92 281.576 485.92 282.131V282.83C485.92 283.384 486.37 283.835 486.925 283.835H502.571C503.127 283.835 503.576 283.384 503.576 282.83V274.351C503.576 273.796 503.126 273.346 502.571 273.346H486.925C486.37 273.349 485.92 273.799 485.92 274.353Z" fill="#DCE8F4"/>
<path d="M502.615 283.306H499.819C499.613 283.306 499.447 283.14 499.447 282.934V274.238C499.447 274.033 499.613 273.866 499.819 273.866H502.615C502.82 273.866 502.987 274.033 502.987 274.238V282.934C502.987 283.14 502.82 283.306 502.615 283.306Z" fill="#B7FC47"/>
<path d="M498.288 283.306H495.492C495.287 283.306 495.12 283.14 495.12 282.934V274.238C495.12 274.033 495.287 273.866 495.492 273.866H498.288C498.494 273.866 498.66 274.033 498.66 274.238V282.934C498.66 283.14 498.494 283.306 498.288 283.306Z" fill="#B7FC47"/>
<path d="M493.961 283.306H491.165C490.96 283.306 490.793 283.14 490.793 282.934V274.238C490.793 274.033 490.96 273.866 491.165 273.866H493.961C494.167 273.866 494.333 274.033 494.333 274.238V282.934C494.333 283.14 494.167 283.306 493.961 283.306Z" fill="#B7FC47"/>
<path d="M478.075 278.593C478.075 280.819 476.27 282.624 474.043 282.624C471.817 282.624 470.012 280.819 470.012 278.593C470.012 276.366 471.817 274.561 474.043 274.561C476.27 274.561 478.075 276.366 478.075 278.593Z" fill="#DCE8F4"/>
<path d="M490.792 301.837H228.434V468.089H490.792V301.837Z" fill="#C3CED9"/>
<path d="M490.792 301.837H228.434V316.172H490.792V301.837Z" fill="#A7B1BA"/>
<path d="M485.483 323.601H313.724V330.42H485.483V323.601Z" fill="#8F68BE"/>
<path d="M408.52 336.581H313.724V343.4H408.52V336.581Z" fill="#8F68BE"/>
<path d="M364.727 349.562H313.724V356.38H364.727V349.562Z" fill="#8F68BE"/>
<path d="M485.483 372.07H313.724V378.888H485.483V372.07Z" fill="#8F68BE"/>
<path d="M408.52 385.05H313.724V391.868H408.52V385.05Z" fill="#8F68BE"/>
<path d="M364.727 398.03H313.724V404.848H364.727V398.03Z" fill="#8F68BE"/>
<path d="M485.483 419.402H313.724V426.22H485.483V419.402Z" fill="#8F68BE"/>
<path d="M408.52 432.382H313.724V439.2H408.52V432.382Z" fill="#8F68BE"/>
<path d="M364.727 445.362H313.724V452.18H364.727V445.362Z" fill="#8F68BE"/>
<path d="M305.333 323.601H238.727V361.101H305.333V323.601Z" fill="#8F68BE"/>
<path d="M238.727 361.101L272.029 342.35L305.333 361.101H238.727Z" fill="#CEDAE6"/>
<path d="M305.333 323.601L272.029 342.35L238.727 323.601H305.333Z" fill="#CEDAE6"/>
<path d="M305.333 371.852H238.727V409.35H305.333V371.852Z" fill="#8F68BE"/>
<path d="M238.727 409.35L272.029 390.601L305.333 409.35H238.727Z" fill="#CEDAE6"/>
<path d="M305.333 371.852L272.029 390.601L238.727 371.852H305.333Z" fill="#CEDAE6"/>
<path d="M305.333 420.101H238.727V457.599H305.333V420.101Z" fill="#8F68BE"/>
<path d="M238.727 457.6L272.029 438.851L305.333 457.6H238.727Z" fill="#CEDAE6"/>
<path d="M305.333 420.101L272.029 438.851L238.727 420.101H305.333Z" fill="#CEDAE6"/>
<g opacity="0.44">
<path d="M316.766 271.429L209.442 378.763V284.97L222.994 271.429H316.766Z" fill="white"/>
<path d="M381.903 271.429L209.442 443.891V395.914L333.926 271.429H381.903Z" fill="white"/>
</g>
<g opacity="0.44">
<path d="M509.786 294.62V388.403L413.674 484.504H319.902L509.786 294.62Z" fill="white"/>
<path d="M509.786 405.553V453.531L478.802 484.504H430.835L509.786 405.553Z" fill="white"/>
</g>
<path d="M260.114 265.596L349.159 196.598C354.787 192.237 362.653 192.237 368.282 196.598L457.327 265.596V381.226H260.114V265.596Z" fill="#EE8F23"/>
<path d="M434.513 204.308H282.927V371.011H434.513V204.308Z" fill="#FAFAFA"/>
<path d="M425.388 214.342H292.052V219.425H425.388V214.342Z" fill="#DBDBDB"/>
<path d="M405.367 224.557H292.052V229.64H405.367V224.557Z" fill="#DBDBDB"/>
<path d="M386.98 234.772H292.052V239.855H386.98V234.772Z" fill="#DBDBDB"/>
<path d="M386.98 254.384H292.052V259.466H386.98V254.384Z" fill="#DBDBDB"/>
<path d="M362.465 264.19H292.052V269.272H362.465V264.19Z" fill="#DBDBDB"/>
<path d="M429.132 284.736H358.719V289.818H429.132V284.736Z" fill="#DBDBDB"/>
<path d="M429.132 294.744H371.862V299.827H429.132V294.744Z" fill="#DBDBDB"/>
<path d="M358.719 323.445L260.114 265.664V381.226L358.719 323.445Z" fill="#FFAC42"/>
<path d="M358.719 323.445L457.326 265.664V381.226L358.719 323.445Z" fill="#FFAC42"/>
<path d="M349.158 312.229L260.113 381.226H457.325L368.28 312.229C362.652 307.868 354.786 307.868 349.158 312.229Z" fill="#FFBE6E"/>
<path d="M472.197 269.804C474.478 261.596 469.672 253.094 461.465 250.813C453.257 248.533 444.754 253.338 442.474 261.546C440.193 269.754 444.998 278.256 453.206 280.537C461.414 282.817 469.917 278.012 472.197 269.804Z" fill="#FC6D5F"/>
<path d="M459.971 258V272.875H455.763V261.251H453V258H459.971Z" fill="white"/>
<path d="M203.123 128.609C205.716 128.713 208.04 129.435 210.096 130.778C212.153 132.121 213.736 133.959 214.846 136.291C215.663 138.011 216.094 139.619 216.135 141.11C216.176 142.602 215.877 143.894 215.235 144.985C214.593 146.076 213.659 146.912 212.437 147.494C211.423 147.976 210.454 148.178 209.527 148.103C208.6 148.029 207.77 147.661 207.035 147.003C206.889 149.113 205.736 150.68 203.577 151.708C202.449 152.244 201.255 152.443 199.993 152.305C198.732 152.166 197.549 151.691 196.449 150.879C195.347 150.066 194.46 148.953 193.788 147.538C193.115 146.124 192.806 144.736 192.861 143.373C192.916 142.011 193.29 140.8 193.984 139.744C194.677 138.688 195.597 137.887 196.744 137.342C198.427 136.541 200.015 136.454 201.507 137.081L200.839 135.676L205.514 133.453L209.673 142.199C209.963 142.811 210.287 143.196 210.644 143.354C211.001 143.513 211.37 143.501 211.752 143.319C212.957 142.746 212.855 140.978 211.446 138.015C210.582 136.199 209.388 134.786 207.864 133.775C206.34 132.766 204.616 132.232 202.69 132.175C200.764 132.118 198.788 132.572 196.762 133.535C194.754 134.49 193.176 135.769 192.027 137.369C190.878 138.971 190.235 140.736 190.098 142.664C189.96 144.593 190.342 146.504 191.242 148.396C192.16 150.328 193.404 151.857 194.973 152.987C196.541 154.117 198.297 154.74 200.241 154.86C202.184 154.978 204.16 154.56 206.167 153.606C208.212 152.633 209.915 151.308 211.273 149.631L213.794 152.195C213.134 153.024 212.255 153.852 211.16 154.677C210.063 155.503 208.904 156.207 207.68 156.789C204.907 158.107 202.193 158.695 199.536 158.553C196.878 158.41 194.493 157.611 192.381 156.153C190.269 154.696 188.619 152.715 187.427 150.211C186.246 147.726 185.762 145.206 185.978 142.654C186.194 140.102 187.094 137.745 188.681 135.584C190.267 133.423 192.456 131.679 195.247 130.351C197.905 129.087 200.53 128.506 203.123 128.609ZM204.595 145.384C204.848 144.561 204.725 143.624 204.224 142.572C203.734 141.54 203.089 140.862 202.29 140.539C201.491 140.216 200.671 140.254 199.831 140.653C198.989 141.054 198.447 141.664 198.204 142.483C197.96 143.301 198.084 144.228 198.575 145.259C199.066 146.291 199.708 146.977 200.501 147.315C201.295 147.652 202.112 147.621 202.953 147.222C203.795 146.82 204.342 146.209 204.595 145.384Z" fill="#A76AF0"/>
<path d="M464.77 134.701L463.293 139.483L467.537 140.264L466.731 144.644L461.944 143.763L460.369 148.704L455.75 147.854L457.326 142.913L453.15 142.145L451.574 147.086L446.956 146.236L448.531 141.295L444.253 140.508L445.059 136.128L449.88 137.016L451.357 132.233L447.079 131.445L447.885 127.066L452.706 127.954L454.282 123.013L458.899 123.862L457.323 128.803L461.5 129.571L463.075 124.63L467.694 125.48L466.118 130.421L470.397 131.208L469.59 135.588L464.77 134.701ZM460.152 133.851L455.975 133.083L454.499 137.865L458.675 138.634L460.152 133.851Z" fill="#A76AF0"/>
<path d="M243.368 430.195H186.201C168.851 430.195 154.785 416.13 154.785 398.78C154.785 381.429 168.851 367.364 186.201 367.364H211.952C229.302 367.364 243.368 381.429 243.368 398.78V430.195Z" fill="#FFBE6E"/>
<path d="M199.077 375.027C185.979 375.027 175.323 385.683 175.323 398.78C175.323 411.877 185.979 422.533 199.077 422.533C212.175 422.533 222.83 411.877 222.83 398.78C222.83 385.682 212.175 375.027 199.077 375.027ZM178.388 398.78C178.388 397.188 178.586 395.645 178.928 394.156C180.013 393.657 182.004 392.844 184.807 392.111C184.175 395.685 183.94 399.69 184.512 403.914C182.63 403.422 180.682 402.823 178.683 402.12C178.505 401.03 178.388 399.92 178.388 398.78ZM187.943 391.407C193.179 390.414 200.305 389.952 208.931 391.558C209.757 395.66 210.154 400.394 209.428 405.261C203.949 406.208 196.553 406.53 187.656 404.651C186.791 399.835 187.123 395.303 187.943 391.407ZM212.151 392.248C214.433 392.79 216.809 393.481 219.272 394.338C219.587 395.77 219.765 397.254 219.765 398.78C219.765 399.972 219.642 401.133 219.447 402.271C218.341 402.793 216.003 403.776 212.593 404.606C213.1 400.248 212.809 396.026 212.151 392.248ZM218.133 390.728C215.832 389.998 213.606 389.402 211.464 388.935C210.629 385.478 209.565 382.559 208.697 380.481C212.905 382.701 216.265 386.321 218.133 390.728ZM204.586 378.86C205.106 379.867 206.835 383.405 208.164 388.3C200.421 386.997 193.877 387.273 188.781 388.099C190.151 383.541 191.984 380.278 192.692 379.111C194.705 378.457 196.848 378.091 199.077 378.091C200.987 378.091 202.829 378.373 204.586 378.86ZM188.186 381.223C187.301 383.184 186.316 385.745 185.541 388.733C183.414 389.222 181.633 389.78 180.228 390.296C181.926 386.538 184.713 383.385 188.186 381.223ZM179.59 405.663C181.488 406.277 183.327 406.786 185.118 407.22C185.86 410.366 187.098 413.593 188.974 416.817C184.636 414.377 181.275 410.415 179.59 405.663ZM193.979 418.807C191.24 415.174 189.48 411.507 188.437 407.942C192.825 408.784 196.861 409.134 200.476 409.134C203.546 409.134 206.309 408.889 208.766 408.521C207.86 412.039 206.29 415.56 203.802 418.902C202.281 419.259 200.705 419.467 199.078 419.467C197.315 419.468 195.613 419.222 193.979 418.807ZM208.599 417.127C210.291 414.101 211.396 410.996 212.051 407.918C214.693 407.341 216.836 406.654 218.423 406.044C216.617 410.834 213.098 414.782 208.599 417.127Z" fill="#FAFAFA"/>
<path d="M468.271 468.98H525.438C542.788 468.98 556.853 454.915 556.853 437.565C556.853 420.215 542.788 406.149 525.438 406.149H499.687C482.336 406.149 468.271 420.215 468.271 437.565V468.98Z" fill="#FFBE6E"/>
<path d="M536.087 428.538C536.087 419.652 521.954 412.01 512.563 419.682C503.172 412.01 489.04 419.651 489.04 428.538C489.04 428.538 486 445.96 512.563 458.6C539.126 445.961 536.087 428.538 536.087 428.538Z" stroke="#FAFAFA" stroke-width="3.8114" stroke-miterlimit="10" stroke-linejoin="round"/>
<path d="M449.507 54.1141C449.143 53.9763 448.779 53.858 448.414 53.7581C448.314 53.3987 448.197 53.0381 448.059 52.6776C447.474 51.2296 446.707 49.7816 445.162 48.3337C443.618 49.7816 442.851 51.2296 442.265 52.6776C442.126 53.0404 442.008 53.4044 441.908 53.7673C441.545 53.8672 441.181 53.9855 440.818 54.1244C439.37 54.71 437.922 55.4771 436.474 57.0215C437.922 58.5659 439.37 59.333 440.818 59.9186C441.179 60.0564 441.538 60.1735 441.899 60.2734C441.999 60.6374 442.117 61.0014 442.255 61.3665C442.838 62.8145 443.609 64.2625 445.162 65.7104C446.716 64.2625 447.486 62.8145 448.07 61.3665C448.206 61.006 448.324 60.6443 448.423 60.2837C448.784 60.1838 449.145 60.0667 449.506 59.9301C450.954 59.3467 452.402 58.5762 453.85 57.0226C452.403 55.4679 450.955 54.6974 449.507 54.1141Z" fill="#A76AF0"/>
<path d="M58.6913 297.076C58.3273 296.939 57.9633 296.82 57.5982 296.72C57.4983 296.36 57.3812 296 57.2445 295.64C56.6589 294.192 55.8919 292.744 54.3474 291.296C52.803 292.744 52.036 294.192 51.4503 295.64C51.3114 296.003 51.1931 296.367 51.0932 296.73C50.7304 296.83 50.3664 296.948 50.0035 297.087C48.5556 297.672 47.1076 298.439 45.6596 299.984C47.1076 301.528 48.5556 302.295 50.0035 302.881C50.3629 303.019 50.7235 303.136 51.084 303.236C51.1839 303.6 51.3022 303.964 51.44 304.329C52.0233 305.777 52.7938 307.225 54.3474 308.673C55.901 307.225 56.6715 305.777 57.2548 304.329C57.3915 303.968 57.5098 303.607 57.6085 303.246C57.9691 303.147 58.3308 303.029 58.6913 302.892C60.1393 302.309 61.5873 301.539 63.0352 299.985C61.5873 298.431 60.1393 297.661 58.6913 297.076Z" fill="#A76AF0"/>
<path d="M479.454 226.732C479.09 226.594 478.726 226.476 478.362 226.376C478.262 226.016 478.145 225.656 478.007 225.296C477.423 223.848 476.655 222.4 475.11 220.952C473.566 222.4 472.799 223.848 472.213 225.296C472.075 225.659 471.956 226.023 471.856 226.386C471.493 226.485 471.129 226.604 470.766 226.743C469.318 227.328 467.87 228.095 466.422 229.64C467.87 231.184 469.318 231.952 470.766 232.537C471.127 232.675 471.486 232.792 471.847 232.892C471.947 233.256 472.065 233.62 472.203 233.984C472.786 235.432 473.557 236.88 475.11 238.328C476.664 236.88 477.434 235.432 478.018 233.984C478.154 233.623 478.273 233.261 478.371 232.901C478.732 232.801 479.094 232.684 479.454 232.547C480.902 231.964 482.35 231.193 483.798 229.64C482.35 228.087 480.902 227.316 479.454 226.732Z" fill="#A76AF0"/>
<path d="M630.595 76.6064C630.412 76.5375 630.23 76.4778 630.047 76.4284C629.998 76.2481 629.938 76.0679 629.87 75.8876C629.578 75.1619 629.192 74.4362 628.418 73.7104C627.644 74.4362 627.259 75.1619 626.965 75.8876C626.896 76.0701 626.837 76.2516 626.786 76.4341C626.604 76.4847 626.422 76.5432 626.24 76.6133C625.514 76.9061 624.788 77.2908 624.062 78.0658C624.788 78.8398 625.514 79.2244 626.24 79.5173C626.42 79.5862 626.6 79.6447 626.78 79.6952C626.831 79.8778 626.89 80.0604 626.958 80.243C627.251 80.9687 627.637 81.6944 628.416 82.4201C629.194 81.6944 629.58 80.9687 629.873 80.243C629.942 80.0615 630 79.8813 630.05 79.6998C630.231 79.6505 630.411 79.5907 630.593 79.523C631.318 79.2302 632.044 78.8444 632.77 78.0658C632.046 77.285 631.321 76.8992 630.595 76.6064Z" fill="#D9C8ED"/>
<path d="M675.325 205.879C675.142 205.81 674.96 205.75 674.777 205.699C674.728 205.519 674.668 205.339 674.6 205.159C674.307 204.433 673.922 203.707 673.148 202.982C672.374 203.707 671.989 204.433 671.696 205.159C671.626 205.341 671.568 205.523 671.517 205.705C671.335 205.756 671.153 205.815 670.971 205.884C670.245 206.177 669.519 206.562 668.793 207.337C669.519 208.111 670.245 208.495 670.971 208.788C671.151 208.857 671.331 208.916 671.513 208.966C671.563 209.149 671.622 209.331 671.692 209.514C671.984 210.24 672.37 210.965 673.149 211.691C673.927 210.965 674.313 210.24 674.606 209.514C674.675 209.333 674.733 209.152 674.783 208.971C674.963 208.92 675.145 208.862 675.326 208.794C676.052 208.501 676.777 208.115 677.503 207.337C676.776 206.557 676.051 206.171 675.325 205.879Z" fill="#D9C8ED"/>
<path d="M673.62 202.851C673.437 202.782 673.255 202.722 673.072 202.671C673.023 202.491 672.963 202.311 672.894 202.131C672.6 201.405 672.215 200.679 671.441 199.953C670.667 200.679 670.283 201.405 669.989 202.131C669.92 202.313 669.86 202.495 669.81 202.677C669.627 202.728 669.446 202.786 669.263 202.856C668.537 203.149 667.812 203.534 667.086 204.308C667.812 205.082 668.537 205.466 669.263 205.759C669.443 205.828 669.624 205.887 669.804 205.937C669.854 206.12 669.913 206.302 669.983 206.485C670.276 207.211 670.662 207.936 671.44 208.662C672.219 207.936 672.605 207.211 672.897 206.485C672.966 206.303 673.025 206.123 673.075 205.942C673.256 205.892 673.437 205.833 673.619 205.765C674.344 205.472 675.07 205.086 675.796 204.308C675.071 203.529 674.345 203.142 673.62 202.851Z" fill="#D9C8ED"/>
<path d="M149.274 242.352C149.091 242.283 148.909 242.224 148.726 242.173C148.675 241.993 148.617 241.813 148.548 241.632C148.254 240.907 147.871 240.181 147.097 239.455C146.323 240.181 145.938 240.907 145.644 241.632C145.575 241.815 145.515 241.996 145.465 242.179C145.282 242.229 145.101 242.288 144.918 242.358C144.193 242.652 143.467 243.035 142.741 243.809C143.467 244.583 144.193 244.968 144.918 245.262C145.099 245.331 145.279 245.389 145.46 245.44C145.51 245.623 145.569 245.805 145.638 245.988C145.931 246.713 146.317 247.439 147.095 248.165C147.874 247.439 148.26 246.713 148.553 245.988C148.622 245.807 148.68 245.626 148.729 245.445C148.911 245.395 149.091 245.335 149.273 245.268C149.998 244.975 150.724 244.589 151.45 243.811C150.725 243.032 149.999 242.645 149.274 242.352Z" fill="#A76AF0"/>
<path d="M69.4391 471.887C69.2565 471.818 69.074 471.758 68.8914 471.708C68.8409 471.527 68.7823 471.347 68.7134 471.167C68.4206 470.441 68.0359 469.715 67.262 468.99C66.4881 469.715 66.1034 470.441 65.8106 471.167C65.7417 471.349 65.682 471.531 65.6315 471.713C65.4489 471.764 65.2675 471.822 65.0849 471.892C64.3592 472.185 63.6335 472.571 62.9078 473.345C63.6335 474.119 64.3592 474.504 65.0849 474.796C65.2652 474.865 65.4454 474.924 65.6257 474.973C65.6762 475.156 65.7348 475.338 65.8048 475.521C66.0977 476.247 66.4835 476.972 67.262 477.698C68.0405 476.972 68.4263 476.247 68.7191 475.521C68.788 475.34 68.8466 475.159 68.896 474.978C69.0774 474.928 69.2577 474.87 69.4391 474.801C70.1648 474.508 70.8905 474.122 71.6162 473.344C70.8905 472.565 70.1637 472.18 69.4391 471.887Z" fill="#A76AF0"/>
<path d="M378.394 127.141C378.211 127.072 378.029 127.012 377.846 126.961C377.797 126.781 377.737 126.601 377.668 126.421C377.375 125.695 376.991 124.969 376.217 124.243C375.443 124.969 375.058 125.695 374.765 126.421C374.696 126.603 374.637 126.785 374.586 126.967C374.403 127.018 374.222 127.076 374.039 127.146C373.314 127.439 372.588 127.824 371.862 128.598C372.588 129.372 373.314 129.756 374.039 130.049C374.22 130.118 374.4 130.177 374.58 130.227C374.631 130.41 374.689 130.592 374.759 130.775C375.052 131.501 375.438 132.226 376.217 132.952C376.995 132.226 377.381 131.501 377.674 130.775C377.743 130.593 377.801 130.413 377.851 130.232C378.032 130.182 378.212 130.124 378.393 130.055C379.118 129.762 379.844 129.376 380.57 128.598C379.845 127.819 379.119 127.433 378.394 127.141Z" fill="#A76AF0"/>
<path d="M167.514 53.2356C167.331 53.1668 167.149 53.107 166.966 53.0565C166.917 52.8762 166.857 52.696 166.788 52.5157C166.494 51.79 166.11 51.0643 165.336 50.3386C164.562 51.0643 164.177 51.79 163.884 52.5157C163.815 52.6983 163.756 52.8797 163.705 53.0623C163.523 53.1128 163.341 53.1713 163.159 53.2414C162.433 53.5342 161.707 53.9189 160.982 54.6928C161.707 55.4667 162.433 55.8514 163.159 56.1442C163.339 56.2131 163.519 56.2717 163.701 56.3222C163.751 56.5048 163.81 56.6873 163.88 56.8699C164.173 57.5956 164.558 58.3213 165.337 59.047C166.115 58.3213 166.501 57.5956 166.794 56.8699C166.863 56.6885 166.921 56.5082 166.971 56.3268C167.152 56.2774 167.333 56.2177 167.514 56.15C168.24 55.8571 168.965 55.4713 169.691 54.6928C168.965 53.9143 168.241 53.5285 167.514 53.2356Z" fill="#A76AF0"/>
<path d="M618.158 249.003C617.976 248.934 617.793 248.874 617.61 248.824C617.561 248.644 617.501 248.463 617.432 248.283C617.14 247.557 616.755 246.832 615.981 246.106C615.207 246.832 614.822 247.557 614.529 248.283C614.46 248.466 614.4 248.647 614.349 248.83C614.167 248.88 613.985 248.939 613.803 249.009C613.077 249.303 612.351 249.686 611.626 250.461C612.351 251.235 613.077 251.62 613.803 251.913C613.983 251.982 614.163 252.04 614.344 252.091C614.394 252.273 614.453 252.456 614.523 252.638C614.816 253.364 615.201 254.09 615.98 254.816C616.758 254.09 617.144 253.364 617.437 252.638C617.506 252.457 617.565 252.277 617.614 252.095C617.794 252.046 617.976 251.986 618.157 251.918C618.883 251.626 619.608 251.24 620.334 250.461C619.61 249.682 618.884 249.296 618.158 249.003Z" fill="#A76AF0"/>
<path d="M402.675 172.958C402.492 172.889 402.31 172.829 402.127 172.779C402.077 172.598 402.018 172.418 401.949 172.238C401.657 171.512 401.272 170.786 400.498 170.061C399.724 170.786 399.339 171.512 399.045 172.238C398.976 172.42 398.917 172.602 398.866 172.784C398.685 172.835 398.502 172.893 398.32 172.963C397.594 173.256 396.868 173.641 396.143 174.415C396.868 175.189 397.594 175.573 398.32 175.867C398.5 175.936 398.68 175.995 398.86 176.045C398.911 176.228 398.97 176.411 399.04 176.593C399.332 177.319 399.718 178.045 400.497 178.77C401.275 178.045 401.661 177.319 401.954 176.593C402.023 176.412 402.081 176.231 402.131 176.05C402.312 176.001 402.492 175.941 402.674 175.873C403.4 175.58 404.125 175.195 404.851 174.416C404.126 173.636 403.401 173.251 402.675 172.958Z" fill="#D9C8ED"/>
<path d="M320.584 86.7996C320.264 86.6778 319.943 86.5745 319.623 86.4861C319.536 86.1692 319.432 85.8534 319.312 85.5365C318.797 84.263 318.122 82.9907 316.765 81.7173C315.408 82.9907 314.732 84.263 314.218 85.5365C314.096 85.8557 313.992 86.1749 313.903 86.4941C313.584 86.5825 313.265 86.6859 312.946 86.8076C311.674 87.322 310.4 87.9972 309.127 89.3545C310.4 90.7117 311.672 91.3869 312.946 91.9013C313.263 92.0219 313.579 92.1252 313.895 92.2125C313.984 92.5329 314.087 92.8532 314.209 93.1725C314.722 94.4459 315.4 95.7182 316.765 96.9916C318.13 95.7193 318.808 94.4459 319.321 93.1725C319.442 92.8555 319.545 92.5375 319.632 92.2205C319.949 92.1333 320.267 92.0299 320.584 91.9094C321.856 91.3961 323.13 90.7186 324.403 89.3533C323.13 87.9903 321.858 87.3128 320.584 86.7996Z" fill="#A76AF0"/>
<path d="M125.644 179.51C125.323 179.388 125.003 179.285 124.682 179.196C124.595 178.879 124.492 178.564 124.371 178.247C123.857 176.973 123.182 175.701 121.824 174.427C120.467 175.7 119.792 176.973 119.278 178.247C119.156 178.566 119.051 178.885 118.964 179.204C118.645 179.293 118.326 179.396 118.006 179.518C116.733 180.032 115.461 180.707 114.187 182.065C115.46 183.422 116.733 184.097 118.006 184.611C118.323 184.732 118.639 184.835 118.956 184.923C119.043 185.243 119.148 185.563 119.269 185.883C119.783 187.156 120.46 188.428 121.826 189.702C123.191 188.428 123.868 187.156 124.382 185.883C124.502 185.566 124.605 185.248 124.693 184.931C125.01 184.843 125.328 184.74 125.645 184.62C126.918 184.106 128.19 183.429 129.464 182.063C128.189 180.699 126.916 180.023 125.644 179.51Z" fill="#A76AF0"/>
<path d="M537.659 148.666C537.338 148.544 537.018 148.441 536.699 148.353C536.612 148.036 536.508 147.72 536.388 147.403C535.873 146.131 535.198 144.857 533.841 143.585C532.484 144.857 531.808 146.131 531.294 147.403C531.172 147.722 531.068 148.041 530.98 148.361C530.661 148.449 530.342 148.552 530.023 148.674C528.749 149.189 527.477 149.864 526.204 151.221C527.477 152.578 528.749 153.253 530.023 153.768C530.34 153.888 530.656 153.992 530.972 154.079C531.061 154.399 531.164 154.72 531.286 155.04C531.799 156.312 532.477 157.586 533.842 158.858C535.207 157.586 535.885 156.312 536.398 155.04C536.519 154.723 536.622 154.405 536.709 154.088C537.026 154.001 537.344 153.898 537.661 153.777C538.935 153.264 540.207 152.586 541.48 151.221C540.205 149.857 538.932 149.179 537.659 148.666Z" fill="#D9C8ED"/>
<path d="M728.487 105.771C728.167 105.65 727.847 105.546 727.526 105.458C727.439 105.141 727.336 104.825 727.215 104.508C726.701 103.236 726.025 101.962 724.668 100.689C723.311 101.961 722.636 103.235 722.121 104.508C722 104.827 721.895 105.147 721.808 105.466C721.489 105.554 721.169 105.658 720.85 105.779C719.577 106.294 718.304 106.969 717.031 108.326C718.304 109.683 719.577 110.359 720.85 110.873C721.167 110.994 721.483 111.097 721.8 111.184C721.887 111.505 721.992 111.825 722.113 112.145C722.627 113.418 723.304 114.691 724.669 115.963C726.035 114.691 726.712 113.418 727.225 112.145C727.346 111.828 727.449 111.51 727.537 111.193C727.854 111.106 728.172 111.003 728.489 110.882C729.761 110.369 731.034 109.691 732.307 108.326C731.033 106.962 729.76 106.285 728.487 105.771Z" fill="#D9C8ED"/>
<path d="M528.274 46.8283C527.954 46.7066 527.633 46.6032 527.314 46.5148C527.227 46.1979 527.123 45.8821 527.003 45.5652C526.488 44.2918 525.813 43.0195 524.456 41.7461C523.099 43.0195 522.424 44.2918 521.909 45.5652C521.787 45.8844 521.683 46.2036 521.596 46.5229C521.276 46.6113 520.957 46.7146 520.637 46.8363C519.365 47.3508 518.091 48.026 516.819 49.3832C518.092 50.7405 519.365 51.4156 520.637 51.9301C520.954 52.0506 521.269 52.154 521.586 52.2412C521.675 52.5616 521.778 52.882 521.9 53.2023C522.413 54.4746 523.091 55.7481 524.456 57.0203C525.821 55.7481 526.499 54.4746 527.012 53.2023C527.133 52.8854 527.236 52.5674 527.323 52.2504C527.64 52.1632 527.958 52.0598 528.275 51.9393C529.549 51.426 530.821 50.7485 532.094 49.3832C530.82 48.0191 529.546 47.3416 528.274 46.8283Z" fill="#D9C8ED"/>
</g>
<defs>
<clipPath id="clip0_9029_2">
<rect width="750" height="500" fill="white"/>
</clipPath>
</defs>
</svg>
