<svg width="640" height="367" viewBox="0 0 640 367" fill="none" xmlns="http://www.w3.org/2000/svg">
<g clip-path="url(#clip0_9005_1491)">
<g clip-path="url(#clip1_9005_1491)">
<g clip-path="url(#clip2_9005_1491)">
<path d="M11.1541 110.125C9.71429 110.576 8.18113 110.639 6.709 110.309C5.23687 109.978 3.87777 109.266 2.76861 108.243C1.65945 107.221 0.839411 105.924 0.391088 104.483C-0.0572359 103.042 -0.118008 101.509 0.214897 100.038C5.20985 79.2572 24.203 28.4387 93.3957 7.06443C123.368 -2.19413 152.111 -2.35218 178.792 6.59117C200.742 13.9182 215.313 25.384 222.283 30.9258C224.054 32.3269 225.196 34.3741 225.457 36.617C225.719 38.86 225.079 41.1149 223.678 42.8858C223.66 42.9078 223.643 42.9296 223.625 42.9514C222.186 44.7278 220.107 45.8677 217.836 46.1255C215.565 46.3834 213.283 45.7384 211.483 44.3297C198.854 34.3798 160.532 4.15198 98.4228 23.3382C37.7768 42.0723 21.3029 85.8925 17.03 103.821C16.7055 105.302 15.9889 106.668 14.9552 107.777C13.9214 108.886 12.6086 109.697 11.1541 110.125Z" fill="#742EC8"/>
<path d="M199.745 227.825C199.058 228.047 198.345 228.181 197.624 228.224C143.568 231.136 109.176 186.228 107.764 184.355L107.502 183.923C106.64 182.586 85.8305 150.925 94.9918 125.779C99.1997 114.284 108.506 106.215 122.731 101.82C135.961 97.7336 146.786 98.9423 156.001 105.522C163.557 110.883 168.399 118.878 173.092 126.598C182.853 142.628 188.835 150.783 207.389 146.078C215.535 144.01 219.339 137.641 221.076 132.68C225.755 119.179 221.609 100.774 210.638 86.8488C196.465 68.7834 156.801 38.7778 107.862 53.8953C86.9641 60.351 69.861 73.0727 58.4075 90.59C48.9191 105.128 43.4031 123.183 43.2822 140.021C43.0918 171.373 68.7863 212.619 69.03 212.993C69.6216 213.939 70.0211 214.993 70.2055 216.094C70.39 217.194 70.3559 218.32 70.1051 219.408C69.8543 220.495 69.3918 221.523 68.7439 222.432C68.0961 223.34 67.2756 224.112 66.3293 224.704C66.3031 224.721 66.2767 224.737 66.2503 224.753C64.3115 225.962 61.9749 226.36 59.7451 225.861C57.5153 225.362 55.5713 224.006 54.3328 222.086C53.1731 220.2 25.7367 176.221 25.9578 139.987C26.2655 100.711 50.1324 53.8378 102.817 37.563C127.169 30.0404 152.761 31.3047 176.844 41.1789C195.51 48.8789 212.786 61.6256 224.207 76.1805C238.796 94.7589 243.935 119.078 237.294 138.058C232.867 150.712 223.701 159.443 211.519 162.564C179.772 170.64 167.335 150.307 158.264 135.475C148.95 120.269 143.798 113.139 127.7 118.112C118.86 120.843 113.415 125.218 111.124 131.504C108.008 140.098 110.961 151.113 113.988 158.835C114.019 158.915 114.051 158.996 114.082 159.076C117.963 168.891 124.018 177.698 131.793 184.835C144.248 196.337 167.37 212.734 196.839 211.153C199.092 211.013 201.308 211.774 203 213.268C204.692 214.762 205.722 216.867 205.862 219.12C205.863 219.147 205.865 219.174 205.866 219.201C205.935 221.112 205.373 222.992 204.267 224.55C203.16 226.109 201.571 227.26 199.745 227.825Z" fill="#742EC8"/>
<path d="M134.195 243.97C133.068 244.319 131.883 244.436 130.71 244.313C129.536 244.191 128.4 243.831 127.37 243.257C100.709 228.152 81.9927 207.835 68.5152 179.358L68.4609 179.183C59.9668 160.197 54.8535 131.189 66.1326 106.672C74.4594 88.5812 90.0894 75.8656 112.51 68.9398C139.028 60.7482 163.719 66.7793 183.984 86.2974C193.2 95.3057 200.695 105.92 206.1 117.62C206.962 119.725 206.96 122.084 206.095 124.188C205.231 126.292 203.573 127.971 201.48 128.862C199.387 129.752 197.028 129.784 194.913 128.948C192.797 128.113 191.095 126.479 190.175 124.399C185.599 114.634 179.28 105.786 171.529 98.2888C155.909 83.4277 137.751 79.0335 117.496 85.2902C99.9933 90.6971 87.9408 100.256 81.771 113.704C72.8736 133.061 77.4545 157.231 84.1017 172.107C95.9856 197.292 112.469 215.157 135.935 228.428C136.904 228.975 137.756 229.707 138.443 230.583C139.129 231.459 139.636 232.461 139.935 233.533C140.234 234.605 140.318 235.726 140.184 236.83C140.05 237.935 139.7 239.003 139.153 239.972C139.132 240.01 139.11 240.048 139.087 240.087C137.994 241.943 136.251 243.327 134.195 243.97Z" fill="#742EC8"/>
<path d="M137.003 158.842C143.094 158.842 148.031 153.905 148.031 147.814C148.031 141.723 143.094 136.786 137.003 136.786C130.912 136.786 125.975 141.723 125.975 147.814C125.975 153.905 130.912 158.842 137.003 158.842Z" fill="#E6E6E6"/>
<path d="M335.852 282.478C335.624 282.478 335.396 282.461 335.171 282.427C334.587 282.34 334.026 282.139 333.52 281.834C333.014 281.529 332.574 281.127 332.225 280.65L326.167 272.436C325.817 271.962 325.563 271.422 325.421 270.849C325.279 270.276 325.252 269.681 325.34 269.097C325.428 268.514 325.63 267.953 325.935 267.448C326.24 266.942 326.641 266.502 327.116 266.152L378.907 227.955C379.382 227.605 379.921 227.351 380.494 227.209C381.067 227.067 381.662 227.04 382.246 227.128C382.83 227.216 383.39 227.418 383.896 227.723C384.401 228.028 384.842 228.429 385.192 228.904L391.249 237.118C391.957 238.077 392.254 239.278 392.076 240.457C391.899 241.635 391.26 242.695 390.301 243.403L338.51 281.6C337.741 282.17 336.809 282.478 335.852 282.478Z" fill="#742EC8"/>
<path d="M372.633 251.725L364.706 240.977C364.053 240.091 363.779 238.983 363.943 237.895C364.107 236.807 364.697 235.829 365.583 235.176L395.911 208.602C396.797 207.949 397.905 207.675 398.993 207.839C400.081 208.004 401.059 208.593 401.713 209.479L416.208 226.795C416.861 227.681 417.136 228.79 416.972 229.878C416.807 230.966 416.217 231.944 415.332 232.597L378.434 252.601C377.549 253.254 376.44 253.529 375.352 253.364C374.264 253.2 373.286 252.61 372.633 251.725Z" fill="#2F2E41"/>
<path d="M421.365 366.652H411.16C409.968 366.65 408.826 366.176 407.983 365.334C407.141 364.491 406.667 363.349 406.665 362.157V277.097C406.667 275.905 407.141 274.763 407.983 273.92C408.826 273.077 409.968 272.603 411.16 272.602H421.365C422.557 272.603 423.699 273.077 424.542 273.92C425.384 274.763 425.858 275.905 425.86 277.097V362.157C425.858 363.349 425.384 364.491 424.542 365.334C423.699 366.176 422.557 366.65 421.365 366.652Z" fill="#742EC8"/>
<path d="M441.551 366.652H431.345C430.153 366.65 429.011 366.176 428.168 365.334C427.326 364.491 426.852 363.349 426.85 362.157V277.097C426.852 275.905 427.326 274.763 428.168 273.92C429.011 273.077 430.153 272.603 431.345 272.602H441.551C442.742 272.603 443.885 273.077 444.727 273.92C445.57 274.763 446.044 275.905 446.045 277.097V362.157C446.044 363.349 445.57 364.491 444.727 365.334C443.885 366.176 442.742 366.65 441.551 366.652Z" fill="#742EC8"/>
<path d="M537.243 365.337H313.185V366.887H537.243V365.337Z" fill="#3F3D56"/>
<path d="M421.948 172.356C442.386 172.356 458.955 155.788 458.955 135.35C458.955 114.911 442.386 98.343 421.948 98.343C401.51 98.343 384.941 114.911 384.941 135.35C384.941 155.788 401.51 172.356 421.948 172.356Z" fill="#742EC8"/>
<path d="M479.24 323.036L457.809 227.859V205.371C457.809 203.904 457.226 202.497 456.189 201.46C455.151 200.422 453.744 199.84 452.277 199.84H431.747V185.379C431.747 184.652 431.604 183.933 431.326 183.262C431.048 182.591 430.641 181.981 430.127 181.467C429.613 180.954 429.004 180.546 428.332 180.268C427.661 179.99 426.942 179.847 426.215 179.847H415.152C414.426 179.847 413.706 179.99 413.035 180.268C412.364 180.546 411.754 180.954 411.24 181.467C410.727 181.981 410.319 182.591 410.041 183.262C409.763 183.933 409.62 184.652 409.62 185.379V199.84H389.09C387.623 199.84 386.216 200.422 385.179 201.46C384.141 202.497 383.559 203.904 383.559 205.371V323.672C383.559 324.382 383.696 325.084 383.963 325.742C384.213 326.923 384.851 327.987 385.775 328.765C386.699 329.543 387.857 329.989 389.064 330.033L475.79 332.925C480.974 333.061 483.326 326.32 479.24 323.036Z" fill="#2F2E41"/>
<path d="M422.304 148.497C420.018 148.433 417.173 148.353 414.982 146.752C414.33 146.256 413.793 145.623 413.411 144.898C413.029 144.173 412.81 143.373 412.769 142.555C412.729 141.973 412.825 141.389 413.048 140.85C413.271 140.311 413.616 139.83 414.056 139.447C415.201 138.48 416.874 138.253 418.673 138.782L416.807 125.142L418.177 124.954L420.371 140.99L419.227 140.465C417.9 139.856 416.079 139.547 414.948 140.503C414.67 140.753 414.454 141.064 414.316 141.411C414.177 141.758 414.121 142.133 414.151 142.506C414.185 143.115 414.349 143.71 414.633 144.25C414.917 144.79 415.315 145.263 415.798 145.635C417.503 146.881 419.771 147.043 422.343 147.114L422.304 148.497Z" fill="#2F2E41"/>
<path d="M410.031 126.319H402.583V127.702H410.031V126.319Z" fill="#2F2E41"/>
<path d="M433.541 126.319H426.093V127.702H433.541V126.319Z" fill="#2F2E41"/>
<path d="M389.541 111.43C382.967 107.446 379.872 99.8884 379.866 92.4141C379.862 88.4302 380.727 84.4934 382.401 80.878C384.074 77.2625 386.516 74.0553 389.555 71.4798C396.326 65.6241 405.342 62.7584 414.151 62.0303C424.808 61.1493 435.397 63.4658 445.575 66.4225C456.473 69.5884 467.152 73.5719 478.308 75.7883C489.134 77.9391 499.989 78.1512 510.647 75.0409C520.484 72.1702 530.47 67.0976 540.977 67.9767C550.053 68.736 556.945 74.7753 561.581 82.2368C570.786 97.0506 571.513 116.934 584.75 129.269C590.473 134.603 597.929 137.019 605.381 138.825C612.526 140.557 620.149 141.666 626.706 145.171C633.737 148.929 637.994 155.992 636.894 164.085C635.645 173.277 629.103 181.189 621.902 186.589C614.321 192.202 605.583 196.053 596.325 197.863C587.068 199.672 577.523 199.394 568.386 197.048C549.279 191.979 533.752 177.171 513.396 176.243C502.039 175.725 490.858 178.819 479.503 178.306C471.634 177.951 463.164 175.041 457.683 169.189C455.052 166.451 453.408 162.914 453.011 159.137C452.887 157.819 450.811 157.806 450.936 159.137C451.714 167.405 457.8 173.512 465.063 176.869C468.886 178.623 472.967 179.747 477.15 180.197C482.706 180.81 488.371 180.23 493.903 179.623C499.749 178.982 505.605 178.193 511.499 178.263C516.879 178.349 522.211 179.297 527.29 181.072C537.044 184.417 545.83 189.967 555.148 194.29C564.166 198.474 573.61 201.068 583.599 201.132C593.227 201.18 602.75 199.138 611.512 195.146C620.14 191.215 628.248 185.348 633.62 177.439C638.656 170.023 641.301 160.295 636.768 151.994C633.215 145.487 626.44 142.194 619.608 140.167C612.035 137.92 604.12 136.894 596.707 134.095C592.833 132.703 589.269 130.565 586.216 127.803C582.942 124.624 580.244 120.902 578.243 116.801C573.999 108.522 571.831 99.4288 568.256 90.8773C564.946 82.956 560.415 74.972 553.118 70.0902C549.196 67.4959 544.639 66.0248 539.94 65.8365C534.742 65.6014 529.576 66.7948 524.635 68.2985C519.407 69.8899 514.305 71.8775 509.038 73.342C503.489 74.887 497.737 75.574 491.98 75.3792C480.141 74.9935 468.704 71.4765 457.496 67.9306C437.861 61.7188 416.024 55.0688 396.284 64.644C388.592 68.3749 382.077 74.6345 379.33 82.854C376.9 90.127 377.235 98.6105 380.983 105.386C382.759 108.609 385.349 111.31 388.494 113.221C389.639 113.915 390.682 112.121 389.541 111.43Z" fill="#2F2E41"/>
<path d="M446.752 296.359H436.546C435.355 296.358 434.212 295.884 433.37 295.041C432.527 294.199 432.053 293.056 432.052 291.865V232.914C432.053 231.722 432.527 230.58 433.37 229.737C434.212 228.895 435.355 228.421 436.546 228.419H446.752C447.944 228.421 449.086 228.895 449.929 229.737C450.772 230.58 451.246 231.722 451.247 232.914V291.865C451.246 293.056 450.772 294.199 449.929 295.041C449.086 295.884 447.944 296.358 446.752 296.359Z" fill="#742EC8"/>
<path d="M407.358 102.273C407.586 103.898 408.262 105.428 409.312 106.688C410.363 107.949 411.744 108.892 413.301 109.41C414.858 109.927 416.529 110 418.125 109.618C419.721 109.237 421.179 108.418 422.334 107.252L420.601 106.794C421.568 109.268 423.189 111.433 425.291 113.058C427.392 114.682 429.896 115.705 432.534 116.017C435.172 116.329 437.845 115.919 440.268 114.83C442.691 113.741 444.772 112.015 446.29 109.835C447.071 108.749 445.272 107.713 444.499 108.788C443.19 110.619 441.415 112.067 439.357 112.979C437.3 113.892 435.035 114.236 432.799 113.976C430.563 113.717 428.438 112.862 426.644 111.502C424.851 110.142 423.455 108.326 422.601 106.243C422.549 106.071 422.454 105.915 422.325 105.79C422.195 105.665 422.036 105.576 421.862 105.53C421.688 105.484 421.506 105.483 421.332 105.528C421.157 105.573 420.998 105.661 420.868 105.785C419.968 106.695 418.828 107.33 417.581 107.616C416.334 107.902 415.031 107.828 413.825 107.402C412.618 106.976 411.558 106.216 410.767 105.21C409.976 104.204 409.488 102.995 409.358 101.722C409.173 100.405 407.174 100.965 407.358 102.273Z" fill="#2F2E41"/>
<path d="M341.97 249.545L341.754 249.692L337.738 243.768C337.433 243.318 337.042 242.933 336.588 242.633C336.133 242.334 335.625 242.128 335.09 242.025C334.556 241.922 334.007 241.926 333.474 242.036C332.942 242.146 332.436 242.359 331.985 242.664L319.435 251.172C318.985 251.478 318.6 251.868 318.3 252.323C318.001 252.777 317.794 253.286 317.692 253.82C317.589 254.354 317.593 254.903 317.703 255.436C317.812 255.969 318.026 256.475 318.331 256.925L340.362 289.422C340.668 289.873 341.058 290.258 341.513 290.558C341.967 290.857 342.476 291.063 343.01 291.166C343.544 291.268 344.093 291.265 344.626 291.155C345.159 291.045 345.665 290.832 346.115 290.527L358.665 282.019C359.115 281.713 359.501 281.323 359.8 280.868C360.099 280.414 360.306 279.905 360.408 279.371C360.511 278.837 360.507 278.288 360.398 277.755C360.288 277.222 360.074 276.716 359.769 276.266L344.612 253.909L344.829 253.762L341.97 249.545Z" fill="#3F3D56"/>
<path d="M332.935 244.203L331.349 245.278C331.543 245.407 331.703 245.582 331.813 245.787C331.924 245.993 331.982 246.222 331.983 246.456C331.984 246.689 331.927 246.919 331.819 247.125C331.71 247.332 331.552 247.508 331.359 247.639L324.4 252.357C324.207 252.487 323.984 252.569 323.752 252.593C323.52 252.618 323.286 252.586 323.07 252.498C322.853 252.411 322.662 252.272 322.512 252.093C322.362 251.914 322.258 251.702 322.21 251.473L320.729 252.478C320.403 252.698 320.125 252.981 319.908 253.309C319.692 253.638 319.543 254.005 319.469 254.391C319.394 254.778 319.397 255.174 319.476 255.56C319.556 255.945 319.71 256.31 319.931 256.636L341.223 288.044C341.444 288.369 341.726 288.648 342.055 288.865C342.383 289.081 342.751 289.23 343.137 289.304C343.523 289.378 343.92 289.376 344.305 289.296C344.69 289.217 345.056 289.063 345.381 288.842L357.587 280.568C358.244 280.122 358.698 279.434 358.847 278.654C358.997 277.874 358.831 277.067 358.385 276.409L337.092 245.001C336.872 244.676 336.589 244.397 336.261 244.181C335.933 243.964 335.565 243.815 335.179 243.741C334.792 243.667 334.396 243.669 334.011 243.749C333.625 243.828 333.26 243.982 332.935 244.203Z" fill="white"/>
</g>
</g>
</g>
<defs>
<clipPath id="clip0_9005_1491">
<rect width="639.099" height="366.887" fill="white"/>
</clipPath>
<clipPath id="clip1_9005_1491">
<rect width="639.099" height="366.887" fill="white"/>
</clipPath>
<clipPath id="clip2_9005_1491">
<rect width="639.093" height="366.887" fill="white" transform="translate(0.0032959 3.05176e-05)"/>
</clipPath>
</defs>
</svg>
