<svg width="500" height="362" viewBox="0 0 500 362" fill="none" xmlns="http://www.w3.org/2000/svg">
<g clip-path="url(#clip0_9029_195)">
<path d="M316.865 150.817C303.428 168.148 284.143 178.526 265.627 190.391C247.844 201.788 227.823 210.676 206.506 212.033C196.742 212.654 186.574 211.586 178.037 206.803C165.859 199.978 158.864 186.853 149.297 176.687C138.071 164.755 124.303 156.017 107.741 154.968C97.6612 154.33 87.3784 155.12 77.5942 152.613C57.2002 147.388 47.3622 124.047 53.458 104.617C59.0114 86.9182 76.4816 75.5175 94.1414 69.8398C111.8 64.1613 130.615 62.7164 148.224 56.881C167.528 50.4837 184.559 39.1195 200.742 26.6036C213.117 17.0331 223.479 4.88952 238.992 2.86871C250.091 1.42287 261.478 4.18504 271.413 9.33867C290.212 19.0888 305.212 37.1968 316.917 54.4732C324.759 66.0476 330.898 79.0295 332.881 92.8686C335.316 109.857 331.261 127.52 322.601 142.336C320.843 145.346 318.922 148.163 316.865 150.817Z" fill="#152F67"/>
<path d="M420.329 279.059H100.412C93.5565 279.059 88 273.502 88 266.648V61.4116C88 54.5565 93.5576 49 100.412 49H420.329C427.184 49 432.74 54.5576 432.74 61.4116V266.648C432.74 273.503 427.184 279.059 420.329 279.059Z" fill="#101439"/>
<path d="M428.446 166.488C429.783 160.851 426.297 155.198 420.66 153.862C415.023 152.525 409.37 156.011 408.034 161.648C406.697 167.285 410.183 172.938 415.82 174.274C421.457 175.611 427.11 172.125 428.446 166.488Z" fill="#1C2363"/>
<path d="M95.3408 202.927C93.507 202.927 92.02 201.44 92.02 199.605V128.453C92.02 126.618 93.507 125.131 95.3408 125.131C97.1757 125.131 98.6628 126.618 98.6628 128.453V199.605C98.6628 201.44 97.1757 202.927 95.3408 202.927Z" fill="#1C2363"/>
<path d="M403.725 57.488H103.38V270.563H403.725V57.488Z" fill="#DCE8F4"/>
<path d="M403.72 57.4929H103.384V71.8142H403.72V57.4929Z" fill="#A6AFB8"/>
<path d="M112.112 65.2446H108.311V70.08H112.112V65.2446Z" fill="#FC6047"/>
<path d="M117.051 61.8767H113.249V70.08H117.051V61.8767Z" fill="#FC6047"/>
<path d="M122.274 59.5469H118.472V70.08H122.274V59.5469Z" fill="#FC6047"/>
<path d="M379.858 60.4128V61.1121C379.858 61.6667 379.408 62.1168 378.852 62.1168H377.733C377.178 62.1168 376.728 62.5669 376.728 63.1216V66.1805C376.728 66.7352 377.178 67.1853 377.733 67.1853H378.852C379.408 67.1853 379.858 67.6354 379.858 68.19V68.8893C379.858 69.4439 380.308 69.894 380.863 69.894H396.509C397.065 69.894 397.514 69.4439 397.514 68.8893V60.4105C397.514 59.8559 397.064 59.4058 396.509 59.4058H380.863C380.308 59.4081 379.858 59.8582 379.858 60.4128Z" fill="#DCE8F4"/>
<path d="M396.553 69.3657H393.757C393.551 69.3657 393.385 69.1992 393.385 68.9937V60.2978C393.385 60.0923 393.551 59.9258 393.757 59.9258H396.553C396.758 59.9258 396.925 60.0923 396.925 60.2978V68.9937C396.925 69.1992 396.758 69.3657 396.553 69.3657Z" fill="#B7FC47"/>
<path d="M392.226 69.3657H389.43C389.224 69.3657 389.058 69.1992 389.058 68.9937V60.2978C389.058 60.0923 389.224 59.9258 389.43 59.9258H392.226C392.431 59.9258 392.598 60.0923 392.598 60.2978V68.9937C392.598 69.1992 392.431 69.3657 392.226 69.3657Z" fill="#B7FC47"/>
<path d="M387.899 69.3657H385.103C384.898 69.3657 384.731 69.1992 384.731 68.9937V60.2978C384.731 60.0923 384.898 59.9258 385.103 59.9258H387.899C388.105 59.9258 388.271 60.0923 388.271 60.2978V68.9937C388.271 69.1992 388.105 69.3657 387.899 69.3657Z" fill="#B7FC47"/>
<path d="M372.013 64.6522C372.013 66.8787 370.208 68.6838 367.982 68.6838C365.755 68.6838 363.95 66.8787 363.95 64.6522C363.95 62.4257 365.755 60.6206 367.982 60.6206C370.208 60.6206 372.013 62.4257 372.013 64.6522Z" fill="#DCE8F4"/>
<path d="M384.73 87.8965H122.372V254.149H384.73V87.8965Z" fill="#C3CED9"/>
<path d="M384.73 87.8965H122.372V102.231H384.73V87.8965Z" fill="#A7B1BA"/>
<path d="M379.421 109.661H207.662V116.479H379.421V109.661Z" fill="#152F67"/>
<path d="M302.458 122.641H207.662V129.459H302.458V122.641Z" fill="#152F67"/>
<path d="M258.665 135.621H207.662V142.439H258.665V135.621Z" fill="#152F67"/>
<path d="M379.421 158.129H207.662V164.948H379.421V158.129Z" fill="#152F67"/>
<path d="M302.458 171.109H207.662V177.928H302.458V171.109Z" fill="#152F67"/>
<path d="M258.665 184.089H207.662V190.908H258.665V184.089Z" fill="#152F67"/>
<path d="M379.421 205.461H207.662V212.279H379.421V205.461Z" fill="#152F67"/>
<path d="M302.458 218.441H207.662V225.259H302.458V218.441Z" fill="#152F67"/>
<path d="M258.665 231.421H207.662V238.24H258.665V231.421Z" fill="#152F67"/>
<path d="M199.271 109.661H132.665V147.16H199.271V109.661Z" fill="#152F67"/>
<path d="M132.665 147.16L165.967 128.41L199.271 147.16H132.665Z" fill="#CEDAE6"/>
<path d="M199.271 109.661L165.967 128.41L132.665 109.661H199.271Z" fill="#CEDAE6"/>
<path d="M199.271 157.911H132.665V195.409H199.271V157.911Z" fill="#152F67"/>
<path d="M132.665 195.409L165.967 176.66L199.271 195.409H132.665Z" fill="#CEDAE6"/>
<path d="M199.271 157.911L165.967 176.66L132.665 157.911H199.271Z" fill="#CEDAE6"/>
<path d="M199.271 206.16H132.665V243.658H199.271V206.16Z" fill="#152F67"/>
<path d="M132.665 243.659L165.967 224.91L199.271 243.659H132.665Z" fill="#CEDAE6"/>
<path d="M199.271 206.16L165.967 224.91L132.665 206.16H199.271Z" fill="#CEDAE6"/>
<g opacity="0.44">
<path d="M210.704 57.488L103.38 164.823V71.0296L116.932 57.488H210.704Z" fill="white"/>
<path d="M275.841 57.488L103.38 229.95V181.973L227.864 57.488H275.841Z" fill="white"/>
</g>
<g opacity="0.44">
<path d="M403.724 80.6797V174.462L307.612 270.563H213.84L403.724 80.6797Z" fill="white"/>
<path d="M403.724 191.613V239.59L372.74 270.563H324.773L403.724 191.613Z" fill="white"/>
</g>
<path d="M141.733 238H82V345.911H174.135V269.04L141.733 238Z" fill="#152F67"/>
<path d="M141.733 238L174.135 269.04H141.733V238Z" fill="#A6BFF4"/>
<path d="M118.241 279.471C118.241 282.71 116.359 285.336 114.038 285.336C111.717 285.336 109.835 282.71 109.835 279.471C109.835 276.232 111.717 273.606 114.038 273.606C116.359 273.606 118.241 276.232 118.241 279.471Z" fill="#F2C947"/>
<path d="M141.98 285.336C144.301 285.336 146.183 282.71 146.183 279.471C146.183 276.232 144.301 273.606 141.98 273.606C139.659 273.606 137.777 276.232 137.777 279.471C137.777 282.71 139.659 285.336 141.98 285.336Z" fill="#F2C947"/>
<path d="M116.319 297.077C118.068 295.162 120.5 293.656 122.921 292.783C129.047 290.574 134.969 292.882 139.635 297.077C140.881 298.197 142.732 296.357 141.48 295.232C136.307 290.582 129.597 287.85 122.716 290.099C119.698 291.085 116.634 292.865 114.473 295.232C113.344 296.47 115.184 298.321 116.319 297.077Z" fill="#F2C947"/>
<path d="M385.807 215.491L330.08 215.123L329.416 315.795L415.37 316.363L415.844 244.648L385.807 215.491Z" fill="#F2C947"/>
<path d="M385.807 215.491L415.844 244.648L385.616 244.448L385.807 215.491Z" fill="#FFFD93"/>
<path d="M390.955 253.018L385.647 247.64L372.761 260.356L360.043 247.471L354.665 252.779L367.382 265.664L354.496 278.381L359.804 283.759L372.69 271.043L385.408 283.928L390.786 278.62L378.069 265.735L390.955 253.018Z" fill="#152F67"/>
<path d="M104.833 137.838L71.4829 121.122L41.2839 181.371L92.7259 207.155L114.237 164.236L104.833 137.838Z" fill="#F2C947"/>
<path d="M104.833 137.838L114.237 164.236L96.147 155.168L104.833 137.838Z" fill="#FFFD93"/>
<path d="M96.816 161.894L95.221 157.094L83.72 160.915L79.898 149.413L75.098 151.008L78.919 162.509L67.418 166.33L69.013 171.131L80.514 167.31L84.336 178.811L89.137 177.216L85.315 165.715L96.816 161.894Z" fill="#152F67"/>
<path d="M229.584 26L202.892 34.686L218.583 82.907L259.755 69.51L248.577 35.159L229.584 26Z" fill="#F2C947"/>
<path d="M229.584 26L248.577 35.159L234.098 39.87L229.584 26Z" fill="#FFFD93"/>
<path d="M238.012 43.1171L234.62 41.3911L230.484 49.5181L222.356 45.3811L220.63 48.7731L228.757 52.9101L224.62 61.0371L228.012 62.7631L232.149 54.6361L240.276 58.7731L242.003 55.3801L233.876 51.2441L238.012 43.1171Z" fill="#152F67"/>
</g>
<defs>
<clipPath id="clip0_9029_195">
<rect width="500" height="362" fill="white"/>
</clipPath>
</defs>
</svg>
