<svg width="500" height="362" viewBox="0 0 500 362" fill="none" xmlns="http://www.w3.org/2000/svg">
<path d="M249.893 335.251C365.814 335.251 459.786 327.004 459.786 316.832C459.786 306.659 365.814 298.413 249.893 298.413C133.972 298.413 40 306.659 40 316.832C40 327.004 133.972 335.251 249.893 335.251Z" fill="#EDF0FC"/>
<path d="M407.715 266.552C407.715 270.952 404.115 274.552 399.715 274.552H100.071C95.671 274.552 92.071 270.952 92.071 266.552V85.9888C92.071 81.5888 95.671 77.9888 100.071 77.9888H399.715C404.115 77.9888 407.715 81.5888 407.715 85.9888V266.552Z" fill="#742EC8"/>
<path d="M398.806 87.6287H100.98V264.911H398.806V87.6287Z" fill="#D9C8ED"/>
<path d="M298.894 274.552H200.892V299.096H298.894V274.552Z" fill="#A76AF0"/>
<path d="M345.799 313.187C327.876 298.717 291.658 288.824 249.893 288.824C208.128 288.824 171.91 298.717 153.987 313.187H345.799Z" fill="#742EC8"/>
<path d="M153.987 315.687C155.7 315.687 157.413 315.687 159.126 315.687C163.787 315.687 168.449 315.687 173.11 315.687C179.969 315.687 186.828 315.687 193.687 315.687C202.091 315.687 210.495 315.687 218.899 315.687C228.105 315.687 237.312 315.687 246.518 315.687C255.77 315.687 265.022 315.687 274.274 315.687C282.94 315.687 291.607 315.687 300.273 315.687C307.596 315.687 314.918 315.687 322.241 315.687C327.486 315.687 332.731 315.687 337.975 315.687C340.472 315.687 342.978 315.748 345.475 315.687C345.583 315.684 345.691 315.687 345.798 315.687C349.015 315.687 349.021 310.687 345.798 310.687C344.085 310.687 342.372 310.687 340.659 310.687C335.998 310.687 331.336 310.687 326.675 310.687C319.816 310.687 312.957 310.687 306.098 310.687C297.694 310.687 289.29 310.687 280.886 310.687C271.68 310.687 262.473 310.687 253.267 310.687C244.015 310.687 234.763 310.687 225.511 310.687C216.845 310.687 208.178 310.687 199.512 310.687C192.189 310.687 184.867 310.687 177.544 310.687C172.299 310.687 167.054 310.687 161.81 310.687C159.313 310.687 156.807 310.626 154.31 310.687C154.202 310.69 154.094 310.687 153.987 310.687C150.77 310.687 150.764 315.687 153.987 315.687Z" fill="#A76AF0"/>
<path d="M382.539 99.9629H117.247V253.346H382.539V99.9629Z" fill="white"/>
<path d="M382.539 99.9629H117.247V114.743H382.539V99.9629Z" fill="#A76AF0"/>
<path d="M130.143 107.693C130.143 109.561 128.629 111.075 126.761 111.075C124.893 111.075 123.379 109.561 123.379 107.693C123.379 105.825 124.893 104.311 126.761 104.311C128.628 104.311 130.143 105.825 130.143 107.693Z" fill="#EB725F"/>
<path d="M141.531 107.693C141.531 109.561 140.017 111.075 138.149 111.075C136.281 111.075 134.767 109.561 134.767 107.693C134.767 105.825 136.281 104.311 138.149 104.311C140.017 104.311 141.531 105.825 141.531 107.693Z" fill="#F9AB43"/>
<path d="M152.92 107.693C152.92 109.561 151.406 111.075 149.538 111.075C147.67 111.075 146.156 109.561 146.156 107.693C146.156 105.825 147.67 104.311 149.538 104.311C151.406 104.311 152.92 105.825 152.92 107.693Z" fill="#742EC8"/>
<path d="M343.631 179.619C343.631 188.76 335.775 196.239 326.174 196.239H178.576C168.974 196.239 161.119 188.76 161.119 179.619C161.119 170.478 168.975 162.999 178.576 162.999H326.174C335.775 162.999 343.631 170.478 343.631 179.619Z" fill="#A76AF0"/>
<path d="M197.628 187.454L191.571 181.818C192.485 180.524 192.957 178.978 192.899 177.367C192.829 175.422 192.006 173.621 190.581 172.295C189.156 170.969 187.301 170.278 185.356 170.348C183.411 170.418 181.61 171.241 180.285 172.666C178.959 174.091 178.267 175.947 178.337 177.891C178.407 179.836 179.23 181.637 180.655 182.963C182.08 184.289 183.935 184.98 185.88 184.91C187.49 184.852 188.998 184.271 190.223 183.266L196.28 188.902L197.628 187.454ZM182.003 181.515C180.965 180.549 180.366 179.237 180.315 177.821C180.264 176.404 180.768 175.053 181.734 174.015C182.699 172.977 184.012 172.378 185.428 172.327C186.845 172.276 188.196 172.78 189.234 173.745C190.272 174.711 190.871 176.023 190.922 177.439C190.973 178.856 190.469 180.207 189.503 181.245C188.537 182.283 187.225 182.882 185.809 182.933C184.392 182.985 183.04 182.481 182.003 181.515Z" fill="#742EC8"/>
<path d="M223.893 181.049C224.839 181.049 225.606 180.282 225.606 179.336C225.606 178.39 224.839 177.623 223.893 177.623C222.947 177.623 222.18 178.39 222.18 179.336C222.18 180.282 222.947 181.049 223.893 181.049Z" fill="#D9C8ED"/>
<path d="M243.893 181.049C244.839 181.049 245.606 180.282 245.606 179.336C245.606 178.39 244.839 177.623 243.893 177.623C242.947 177.623 242.18 178.39 242.18 179.336C242.18 180.282 242.947 181.049 243.893 181.049Z" fill="#D9C8ED"/>
<path d="M263.893 181.049C264.839 181.049 265.606 180.282 265.606 179.336C265.606 178.39 264.839 177.623 263.893 177.623C262.947 177.623 262.18 178.39 262.18 179.336C262.18 180.282 262.947 181.049 263.893 181.049Z" fill="#D9C8ED"/>
<path d="M283.893 181.049C284.839 181.049 285.606 180.282 285.606 179.336C285.606 178.39 284.839 177.623 283.893 177.623C282.947 177.623 282.18 178.39 282.18 179.336C282.18 180.282 282.947 181.049 283.893 181.049Z" fill="#D9C8ED"/>
<path d="M166.49 207.937H106.757V315.848H198.892V238.977L166.49 207.937Z" fill="#EB725F"/>
<path d="M166.49 207.937L198.892 238.977H166.49V207.937Z" fill="#F4AEA6"/>
<path d="M142.998 249.408C142.998 252.647 141.116 255.273 138.795 255.273C136.474 255.273 134.592 252.647 134.592 249.408C134.592 246.169 136.474 243.543 138.795 243.543C141.116 243.543 142.998 246.169 142.998 249.408Z" fill="white"/>
<path d="M166.737 255.273C169.058 255.273 170.94 252.647 170.94 249.408C170.94 246.169 169.058 243.543 166.737 243.543C164.416 243.543 162.534 246.169 162.534 249.408C162.534 252.647 164.416 255.273 166.737 255.273Z" fill="white"/>
<path d="M141.076 267.014C142.825 265.099 145.257 263.593 147.678 262.72C153.804 260.511 159.726 262.819 164.392 267.014C165.638 268.134 167.489 266.294 166.237 265.169C161.064 260.519 154.354 257.787 147.473 260.036C144.455 261.022 141.391 262.802 139.23 265.169C138.101 266.407 139.941 268.258 141.076 267.014Z" fill="white"/>
<path d="M385.807 215.491L330.08 215.123L329.416 315.795L415.37 316.363L415.844 244.648L385.807 215.491Z" fill="#D9C8ED"/>
<path d="M385.807 215.491L415.844 244.648L385.616 244.448L385.807 215.491Z" fill="#A76AF0"/>
<path d="M390.955 253.018L385.647 247.64L372.761 260.356L360.043 247.471L354.665 252.779L367.382 265.664L354.496 278.381L359.804 283.759L372.69 271.043L385.408 283.928L390.786 278.62L378.069 265.735L390.955 253.018Z" fill="#EEF4FF"/>
<path d="M104.833 137.838L71.4829 121.122L41.2839 181.371L92.7259 207.155L114.237 164.236L104.833 137.838Z" fill="#D9C8ED"/>
<path d="M104.833 137.838L114.237 164.236L96.147 155.168L104.833 137.838Z" fill="#A76AF0"/>
<path d="M96.816 161.894L95.221 157.094L83.72 160.915L79.898 149.413L75.098 151.008L78.919 162.509L67.418 166.33L69.013 171.131L80.514 167.31L84.336 178.811L89.137 177.216L85.315 165.715L96.816 161.894Z" fill="#EEF4FF"/>
<path d="M229.584 26L202.892 34.686L218.583 82.907L259.755 69.51L248.577 35.159L229.584 26Z" fill="#D9C8ED"/>
<path d="M229.584 26L248.577 35.159L234.098 39.87L229.584 26Z" fill="#A76AF0"/>
<path d="M238.012 43.1171L234.62 41.3911L230.484 49.5181L222.356 45.3811L220.63 48.7731L228.757 52.9101L224.62 61.0371L228.012 62.7631L232.149 54.6361L240.276 58.7731L242.003 55.3801L233.876 51.2441L238.012 43.1171Z" fill="#EEF4FF"/>
</svg>
