<svg width="373" height="380" viewBox="0 0 373 380" fill="none" xmlns="http://www.w3.org/2000/svg">
<g clip-path="url(#clip0_46_24)">
<g clip-path="url(#clip1_46_24)">
<path d="M82.1854 144.856C69.6587 128.092 46.7317 124.047 35.3388 132.56C23.9459 141.073 21.3288 164.207 33.8556 180.971C45.4507 196.488 66.4581 200.72 78.0289 194.906C77.9915 195.088 77.9892 195.275 78.0221 195.457L78.6745 198.682C78.7242 198.928 78.8359 199.157 78.9991 199.348C79.1623 199.538 79.3714 199.684 79.6067 199.771C79.8419 199.858 80.0955 199.883 80.3434 199.844C80.5912 199.806 80.8251 199.704 81.0227 199.55L86.5468 195.234C86.7445 195.08 86.8994 194.878 86.9969 194.646C87.0944 194.415 87.1311 194.163 87.1037 193.914C87.0763 193.664 86.9855 193.426 86.8402 193.222C86.6948 193.017 86.4996 192.854 86.2731 192.746L83.3016 191.333C83.197 191.286 83.0872 191.251 82.9746 191.23C91.8934 181.801 93.8057 160.407 82.1854 144.856Z" fill="#CCCCCC"/>
<path d="M54.7848 138.527C60.9125 139.5 66.4326 142.789 70.2057 147.715C73.9788 152.64 75.7169 158.826 75.0611 164.996C74.9265 166.409 77.1347 166.4 77.2684 164.996C77.9001 158.346 75.9943 151.703 71.9333 146.399C67.8722 141.095 61.9562 137.523 55.3716 136.399C53.9822 136.162 53.3851 138.289 54.7848 138.527Z" fill="white"/>
<path d="M370.009 165.845C376.749 146.033 367.119 124.837 353.655 120.256C340.191 115.675 319.632 126.6 312.892 146.412C306.652 164.75 315.043 184.469 326.382 190.723C326.211 190.795 326.055 190.899 325.923 191.029L323.633 193.391C323.458 193.571 323.332 193.793 323.267 194.035C323.203 194.278 323.201 194.532 323.262 194.776C323.323 195.019 323.446 195.242 323.618 195.425C323.79 195.607 324.006 195.743 324.245 195.819L330.928 197.934C331.167 198.009 331.422 198.023 331.668 197.972C331.913 197.922 332.142 197.81 332.332 197.646C332.522 197.482 332.668 197.273 332.754 197.037C332.84 196.802 332.865 196.548 332.826 196.3L332.311 193.051C332.29 192.938 332.257 192.828 332.211 192.723C345.031 194.746 363.756 184.223 370.009 165.845Z" fill="#CCCCCC"/>
<path d="M359.732 139.668C362.395 145.272 362.804 151.684 360.876 157.582C358.948 163.479 354.829 168.411 349.37 171.36C348.129 172.048 349.385 173.864 350.619 173.18C356.46 169.94 360.861 164.611 362.938 158.263C365.015 151.914 364.616 145.014 361.819 138.948C361.228 137.669 359.136 138.379 359.732 139.668Z" fill="white"/>
<path d="M211.654 36.7644C210.738 15.8574 194.067 -0.393422 179.858 0.228965C165.65 0.851353 150.463 18.4976 151.379 39.4046C152.227 58.7567 167.207 74.0807 180.042 75.7899C179.909 75.9189 179.802 76.0721 179.727 76.2413L178.45 79.2741C178.353 79.5053 178.316 79.7575 178.344 80.0068C178.372 80.2561 178.462 80.4942 178.608 80.6985C178.753 80.9028 178.949 81.0666 179.175 81.1742C179.402 81.2818 179.652 81.3297 179.902 81.3133L186.898 80.8564C187.148 80.84 187.39 80.76 187.601 80.6238C187.811 80.4877 187.984 80.2999 188.101 80.0784C188.219 79.8569 188.278 79.609 188.273 79.3582C188.268 79.1074 188.199 78.8621 188.072 78.6455L186.412 75.8046C186.352 75.7069 186.281 75.6167 186.2 75.5357C198.879 72.7637 212.503 56.1586 211.654 36.7644Z" fill="#742EC8"/>
<path d="M192.571 16.1081C197.087 20.3622 199.798 26.1879 200.144 32.3828C200.489 38.5777 198.443 44.6688 194.428 49.3989C193.521 50.4911 195.351 51.7266 196.252 50.6415C200.518 45.501 202.683 38.9378 202.312 32.2682C201.941 25.5985 199.063 19.3155 194.254 14.6793C193.239 13.7019 191.548 15.1234 192.571 16.1081Z" fill="white"/>
<path d="M212.803 218.527C229.363 218.527 242.787 205.102 242.787 188.542C242.787 171.982 229.363 158.558 212.803 158.558C196.243 158.558 182.818 171.982 182.818 188.542C182.818 205.102 196.243 218.527 212.803 218.527Z" fill="#742EC8"/>
<path d="M211.44 378.664H203.171C202.205 378.663 201.279 378.279 200.597 377.596C199.914 376.913 199.53 375.988 199.529 375.022V306.103C199.53 305.137 199.914 304.212 200.597 303.529C201.279 302.846 202.205 302.462 203.171 302.461H211.44C212.405 302.462 213.331 302.846 214.013 303.529C214.696 304.212 215.08 305.137 215.081 306.103V375.022C215.08 375.988 214.696 376.913 214.013 377.596C213.331 378.279 212.405 378.663 211.44 378.664Z" fill="#742EC8"/>
<path d="M237.927 378.664H229.658C228.693 378.663 227.767 378.279 227.085 377.596C226.402 376.913 226.018 375.988 226.017 375.022V306.103C226.018 305.137 226.402 304.212 227.085 303.529C227.767 302.846 228.693 302.462 229.658 302.461H237.927C238.893 302.462 239.818 302.846 240.501 303.529C241.184 304.212 241.568 305.137 241.569 306.103V375.022C241.568 375.988 241.184 376.913 240.501 377.596C239.818 378.279 238.893 378.663 237.927 378.664Z" fill="#742EC8"/>
<path d="M190.765 246.826L187.218 254.296C186.803 255.168 186.059 255.839 185.15 256.163C184.24 256.487 183.239 256.436 182.366 256.023L120.11 226.458C119.239 226.043 118.567 225.299 118.244 224.39C117.92 223.48 117.97 222.479 118.383 221.607L121.93 214.137C122.345 213.266 123.089 212.594 123.999 212.27C124.909 211.946 125.909 211.997 126.782 212.41L189.038 241.975C189.91 242.39 190.581 243.134 190.905 244.043C191.229 244.953 191.179 245.954 190.765 246.826Z" fill="#742EC8"/>
<path d="M200.144 250.83C200.32 251.679 200.185 252.562 199.764 253.319L195.768 260.558C195.3 261.403 194.516 262.028 193.589 262.295C192.661 262.563 191.665 262.452 190.819 261.986L161.564 249.09C160.719 248.622 160.094 247.838 159.827 246.911C159.559 245.983 159.67 244.987 160.136 244.141L167.467 230.427C167.698 230.008 168.01 229.639 168.384 229.341C168.757 229.042 169.186 228.82 169.646 228.688C170.105 228.555 170.586 228.515 171.061 228.568C171.537 228.621 171.997 228.768 172.415 228.999L198.69 246.368C199.542 246.838 199.805 249.615 200.075 250.549C200.102 250.643 200.125 250.737 200.144 250.83Z" fill="#2F2E41"/>
<path d="M236.114 241.975L298.37 212.41C299.243 211.997 300.244 211.946 301.153 212.27C302.063 212.594 302.807 213.266 303.222 214.137L306.769 221.607C307.182 222.479 307.233 223.48 306.909 224.39C306.585 225.299 305.913 226.043 305.042 226.458L242.786 256.023C241.913 256.436 240.912 256.487 240.003 256.163C239.093 255.839 238.349 255.168 237.934 254.296L234.387 246.826C233.974 245.954 233.923 244.953 234.247 244.043C234.571 243.134 235.242 242.39 236.114 241.975Z" fill="#742EC8"/>
<path d="M225.077 250.549C225.347 249.615 225.611 246.838 226.462 246.368L252.737 228.999C253.156 228.768 253.616 228.621 254.091 228.568C254.566 228.515 255.047 228.555 255.507 228.688C255.966 228.82 256.395 229.042 256.769 229.341C257.143 229.639 257.454 230.008 257.685 230.427L265.016 244.141C265.482 244.987 265.593 245.983 265.326 246.911C265.058 247.838 264.433 248.622 263.589 249.09L234.333 261.986C233.487 262.452 232.491 262.563 231.564 262.295C230.636 262.028 229.852 261.403 229.385 260.558L225.388 253.32C224.967 252.562 224.832 251.679 225.008 250.83C225.027 250.737 225.05 250.643 225.077 250.549Z" fill="#2F2E41"/>
<path d="M208.811 199.656L208.78 198.535C210.865 198.477 212.702 198.346 214.083 197.337C214.475 197.035 214.797 196.652 215.027 196.214C215.257 195.777 215.39 195.294 215.418 194.8C215.442 194.499 215.396 194.195 215.284 193.914C215.172 193.633 214.997 193.381 214.772 193.179C213.855 192.405 212.38 192.655 211.305 193.148L210.378 193.573L212.156 180.581L213.266 180.733L211.753 191.785C212.372 191.555 213.039 191.484 213.693 191.578C214.346 191.672 214.966 191.928 215.495 192.323C215.851 192.634 216.13 193.023 216.311 193.459C216.492 193.896 216.569 194.368 216.537 194.84C216.505 195.503 216.327 196.152 216.017 196.74C215.708 197.327 215.273 197.84 214.744 198.242C212.97 199.539 210.664 199.604 208.811 199.656Z" fill="#2F2E41"/>
<path d="M224.791 181.686H218.756V182.807H224.791V181.686Z" fill="#2F2E41"/>
<path d="M205.742 181.686H199.707V182.807H205.742V181.686Z" fill="#2F2E41"/>
<path d="M223.14 232.541H224.348C224.832 232.542 225.311 232.447 225.758 232.263C226.205 232.078 226.611 231.807 226.953 231.466C227.295 231.124 227.566 230.718 227.751 230.272C227.937 229.825 228.032 229.346 228.032 228.863C228.032 228.379 227.937 227.9 227.751 227.454C227.566 227.007 227.295 226.601 226.953 226.26C226.611 225.918 226.205 225.647 225.758 225.463C225.311 225.278 224.832 225.183 224.348 225.184H200.804C199.829 225.185 198.895 225.573 198.206 226.263C197.517 226.953 197.13 227.888 197.13 228.863C197.13 229.838 197.517 230.773 198.206 231.462C198.895 232.152 199.829 232.54 200.804 232.541H203.016C184.12 241.138 171.996 272.894 171.996 292.683C171.996 315.737 188.634 323.173 213.078 323.173C237.523 323.173 260.516 315.737 260.516 292.683C260.516 272.894 243.438 241.138 223.14 232.541Z" fill="#2F2E41"/>
<path d="M211.568 171.418C210.837 169.198 208.202 168.516 206.173 169.354C203.794 170.336 202.446 172.769 200.148 173.919C196.016 175.988 190.535 174.877 187.384 171.561C183.939 167.935 183.261 162.277 184.995 157.699C186.788 152.964 191.235 149.537 195.998 148.145C202.326 146.296 209.115 147.993 214.596 151.405C214.743 151.488 214.906 151.537 215.074 151.548C215.243 151.559 215.411 151.532 215.567 151.468C215.723 151.405 215.863 151.307 215.975 151.181C216.088 151.056 216.171 150.907 216.218 150.745C217.725 144.986 224.227 143.31 229.451 143.928C234.608 144.638 239.513 146.596 243.742 149.631C251.91 155.33 257.668 164.611 258.474 174.604C258.862 179.743 258.121 184.905 256.305 189.729C254.488 194.552 251.639 198.92 247.958 202.527C246.116 204.304 243.971 205.701 242.094 207.432C240.384 209.01 238.698 211.085 238.732 213.54C238.811 219.185 246.239 220.742 250.635 220.911C256.092 221.155 261.451 219.403 265.711 215.982C269.97 212.562 272.838 207.708 273.778 202.327C274.012 201.017 274.133 199.689 274.14 198.358C274.147 196.938 271.94 196.936 271.933 198.358C271.892 203.723 269.781 208.864 266.041 212.71C264.118 214.639 261.83 216.164 259.31 217.196C256.79 218.228 254.089 218.746 251.366 218.72C247.857 218.703 238.348 217.039 241.535 211.487C242.781 209.316 245.017 207.838 246.944 206.328C248.949 204.752 250.769 202.955 252.371 200.971C255.596 196.988 257.973 192.389 259.356 187.454C260.74 182.52 261.1 177.355 260.415 172.276C258.992 162.322 252.957 153.329 244.747 147.649C236.931 142.242 222.483 137.459 215.651 146.828C214.927 147.831 214.397 148.96 214.089 150.158L215.71 149.499C210.429 146.212 204.135 144.507 197.928 145.458C195.257 145.861 192.696 146.804 190.401 148.23C188.107 149.657 186.128 151.536 184.585 153.754C183.106 155.984 182.2 158.545 181.949 161.21C181.698 163.874 182.109 166.559 183.145 169.027C184.16 171.391 185.833 173.413 187.965 174.852C190.097 176.292 192.598 177.088 195.17 177.147C197.955 177.258 200.695 176.42 202.941 174.768C204.198 173.809 205.164 172.452 206.525 171.636C207.304 171.168 209.056 170.84 209.439 172.005C209.881 173.348 212.014 172.773 211.568 171.418Z" fill="#2F2E41"/>
<path d="M261.598 62.4531C267.075 62.7981 272.392 64.4361 277.113 67.2329C281.835 70.0297 285.826 73.9057 288.761 78.543C289.583 79.8576 290.657 81.3023 290.087 82.9204C289.889 83.5409 289.486 84.0757 288.944 84.4375C288.403 84.7992 287.754 84.9666 287.105 84.9121C285.427 84.7078 284.344 83.0658 284.137 81.4925C283.902 79.7079 285.161 78.3068 286.716 77.6437C290.514 76.0234 294.347 78.5275 297.441 80.526C304.491 85.0797 312.246 89.1979 320.789 89.7169C328.693 90.197 337.169 87.0978 341.566 80.2433C342.335 79.0441 340.425 77.9359 339.66 79.1292C335.3 85.9272 326.485 88.3687 318.821 87.318C314.254 86.5973 309.844 85.1 305.782 82.891C303.675 81.7978 301.632 80.5859 299.63 79.312C297.726 77.9828 295.707 76.8254 293.597 75.8533C290.079 74.4081 285.422 74.521 282.964 77.8483C280.672 80.9525 282.443 86.1203 286.278 86.993C289.912 87.8201 293.095 84.4024 292.348 80.8289C291.965 79.0009 290.588 77.2121 289.523 75.718C286.322 71.2147 282.151 67.4869 277.318 64.8091C272.485 62.1314 267.113 60.572 261.598 60.2458C260.178 60.1756 260.182 62.383 261.598 62.4531Z" fill="#CCCCCC"/>
<path d="M80.9562 97.1214C75.4793 96.7764 70.1621 95.1383 65.4406 92.3415C60.719 89.5447 56.7274 85.6688 53.7931 81.0315C52.9707 79.7168 51.8972 78.2722 52.4665 76.654C52.6648 76.0336 53.0677 75.4988 53.6094 75.137C54.1511 74.7752 54.7995 74.6079 55.4485 74.6624C57.127 74.8667 58.2101 76.5086 58.4169 78.0819C58.6514 79.8666 57.3924 81.2676 55.838 81.9307C52.0394 83.551 48.207 81.0469 45.1128 79.0484C38.0625 74.4947 30.3078 70.3765 21.7648 69.8576C13.8606 69.3775 5.38444 72.4767 0.987979 79.3312C0.218802 80.5304 2.12858 81.6385 2.89394 80.4452C7.25417 73.6473 16.0686 71.2057 23.7327 72.2564C28.3 72.9772 32.7101 74.4745 36.7721 76.6834C38.8786 77.7767 40.9217 78.9885 42.9235 80.2625C44.8283 81.5916 46.8473 82.749 48.9568 83.7211C52.4749 85.1663 57.1322 85.0534 59.5896 81.7261C61.8822 78.622 60.1104 73.4541 56.2759 72.5814C52.642 71.7544 49.4584 75.1721 50.2063 78.7455C50.5889 80.5735 51.9654 82.3623 53.0308 83.8565C56.2321 88.3598 60.4027 92.0876 65.2357 94.7653C70.0687 97.443 75.4408 99.0024 80.9563 99.3286C82.3762 99.3989 82.3723 97.1914 80.9562 97.1214Z" fill="#CCCCCC"/>
<path d="M335.505 379.298H105.884C105.724 379.298 105.571 379.234 105.458 379.121C105.345 379.008 105.281 378.855 105.281 378.695C105.281 378.535 105.345 378.382 105.458 378.269C105.571 378.156 105.724 378.092 105.884 378.092H335.505C335.665 378.092 335.818 378.156 335.931 378.269C336.045 378.382 336.108 378.535 336.108 378.695C336.108 378.855 336.045 379.008 335.931 379.121C335.818 379.234 335.665 379.298 335.505 379.298Z" fill="#3F3D56"/>
</g>
</g>
<defs>
<clipPath id="clip0_46_24">
<rect width="371.41" height="379.086" fill="white" transform="translate(0.807205 0.21167)"/>
</clipPath>
<clipPath id="clip1_46_24">
<rect width="371.406" height="379.086" fill="white" transform="translate(0.80899 0.21167)"/>
</clipPath>
</defs>
</svg>
