<svg width="750" height="500" viewBox="0 0 750 500" fill="none" xmlns="http://www.w3.org/2000/svg">
<g clip-path="url(#clip0_9076_61843)">
<path d="M208.397 103.863C210.989 103.967 213.314 104.689 215.37 106.032C217.427 107.375 219.01 109.213 220.119 111.545C220.937 113.265 221.368 114.873 221.409 116.364C221.45 117.856 221.151 119.148 220.509 120.239C219.867 121.33 218.933 122.166 217.71 122.748C216.696 123.23 215.727 123.432 214.801 123.357C213.874 123.283 213.044 122.915 212.309 122.257C212.163 124.367 211.01 125.934 208.85 126.962C207.723 127.498 206.528 127.697 205.267 127.559C204.006 127.42 202.823 126.945 201.723 126.133C200.621 125.32 199.734 124.207 199.061 122.792C198.388 121.378 198.08 119.99 198.135 118.627C198.19 117.265 198.564 116.054 199.258 114.998C199.951 113.942 200.871 113.141 202.018 112.596C203.7 111.796 205.288 111.708 206.781 112.335L206.113 110.93L210.787 108.707L214.946 117.453C215.237 118.065 215.561 118.45 215.918 118.608C216.275 118.767 216.644 118.755 217.026 118.573C218.23 118 218.128 116.232 216.719 113.269C215.856 111.453 214.662 110.04 213.138 109.029C211.614 108.02 209.889 107.486 207.964 107.429C206.038 107.372 204.062 107.826 202.035 108.789C200.028 109.744 198.449 111.023 197.301 112.623C196.152 114.225 195.509 115.99 195.372 117.918C195.234 119.847 195.615 121.758 196.516 123.65C197.434 125.582 198.678 127.111 200.246 128.241C201.815 129.371 203.571 129.994 205.515 130.114C207.457 130.232 209.434 129.814 211.441 128.86C213.486 127.887 215.189 126.562 216.547 124.885L219.068 127.449C218.407 128.278 217.529 129.106 216.433 129.931C215.337 130.757 214.178 131.461 212.954 132.043C210.181 133.361 207.467 133.949 204.81 133.807C202.151 133.664 199.766 132.865 197.655 131.407C195.543 129.95 193.893 127.969 192.701 125.465C191.519 122.98 191.036 120.46 191.252 117.908C191.468 115.356 192.368 112.999 193.955 110.838C195.541 108.677 197.729 106.933 200.521 105.605C203.179 104.341 205.804 103.76 208.397 103.863ZM209.869 120.638C210.121 119.815 209.999 118.878 209.498 117.826C209.008 116.794 208.362 116.116 207.564 115.793C206.765 115.47 205.945 115.508 205.105 115.907C204.263 116.308 203.721 116.918 203.478 117.737C203.234 118.555 203.358 119.482 203.848 120.513C204.34 121.545 204.982 122.231 205.775 122.569C206.569 122.906 207.386 122.875 208.227 122.476C209.068 122.074 209.616 121.463 209.869 120.638Z" fill="#152F67"/>
<path d="M531.195 453.012C533.788 453.115 536.112 453.837 538.168 455.181C540.225 456.523 541.808 458.361 542.917 460.694C543.735 462.414 544.166 464.021 544.207 465.513C544.248 467.005 543.949 468.296 543.307 469.387C542.665 470.478 541.731 471.314 540.508 471.896C539.494 472.378 538.525 472.581 537.599 472.506C536.672 472.431 535.842 472.064 535.107 471.406C534.961 473.515 533.808 475.083 531.648 476.11C530.521 476.647 529.327 476.845 528.065 476.707C526.804 476.568 525.621 476.093 524.521 475.281C523.419 474.468 522.532 473.356 521.859 471.941C521.186 470.526 520.878 469.138 520.933 467.775C520.988 466.413 521.362 465.203 522.056 464.146C522.749 463.09 523.669 462.29 524.816 461.744C526.498 460.944 528.086 460.857 529.579 461.484L528.911 460.078L533.585 457.855L537.745 466.601C538.035 467.214 538.359 467.598 538.716 467.757C539.073 467.915 539.442 467.904 539.824 467.721C541.029 467.148 540.926 465.381 539.517 462.417C538.654 460.602 537.46 459.188 535.936 458.178C534.412 457.168 532.688 456.635 530.762 456.577C528.836 456.521 526.86 456.974 524.833 457.938C522.826 458.892 521.247 460.171 520.099 461.772C518.95 463.374 518.307 465.139 518.17 467.067C518.032 468.996 518.413 470.906 519.314 472.799C520.232 474.73 521.476 476.26 523.044 477.389C524.613 478.519 526.369 479.143 528.313 479.262C530.256 479.381 532.232 478.963 534.239 478.008C536.284 477.036 537.987 475.711 539.345 474.033L541.866 476.597C541.205 477.426 540.327 478.254 539.232 479.08C538.135 479.905 536.976 480.609 535.752 481.191C532.979 482.51 530.265 483.098 527.608 482.955C524.949 482.813 522.564 482.014 520.453 480.555C518.341 479.098 516.691 477.117 515.499 474.613C514.318 472.128 513.834 469.609 514.05 467.056C514.266 464.505 515.166 462.147 516.753 459.986C518.339 457.825 520.527 456.081 523.319 454.754C525.977 453.489 528.602 452.908 531.195 453.012ZM532.667 469.787C532.919 468.963 532.797 468.026 532.296 466.975C531.806 465.942 531.16 465.265 530.362 464.941C529.563 464.618 528.743 464.656 527.903 465.056C527.061 465.457 526.519 466.066 526.276 466.885C526.032 467.704 526.156 468.63 526.647 469.662C527.138 470.694 527.78 471.379 528.573 471.717C529.367 472.055 530.184 472.024 531.025 471.624C531.867 471.222 532.414 470.611 532.667 469.787Z" fill="#F2C947"/>
<path d="M470.044 109.955L468.567 114.737L472.811 115.518L472.005 119.898L467.218 119.017L465.642 123.958L461.024 123.108L462.599 118.167L458.423 117.399L456.848 122.34L452.229 121.49L453.805 116.549L449.526 115.762L450.332 111.382L455.154 112.27L456.631 107.487L452.352 106.699L453.158 102.32L457.98 103.208L459.555 98.2666L464.173 99.1163L462.597 104.057L466.773 104.826L468.349 99.8845L472.967 100.734L471.392 105.675L475.67 106.462L474.864 110.842L470.044 109.955ZM465.425 109.105L461.249 108.337L459.772 113.119L463.949 113.888L465.425 109.105Z" fill="#152F67"/>
<path d="M454.781 29.3678C454.417 29.23 454.053 29.1117 453.688 29.0118C453.588 28.6524 453.471 28.2919 453.333 27.9313C452.747 26.4833 451.98 25.0354 450.436 23.5874C448.891 25.0354 448.124 26.4833 447.539 27.9313C447.4 28.2942 447.282 28.6582 447.182 29.021C446.819 29.1209 446.455 29.2392 446.092 29.3781C444.644 29.9637 443.196 30.7308 441.748 32.2752C443.196 33.8196 444.644 34.5867 446.092 35.1723C446.452 35.3101 446.812 35.4272 447.172 35.5271C447.272 35.8911 447.391 36.2551 447.528 36.6203C448.112 38.0682 448.882 39.5162 450.436 40.9642C451.989 39.5162 452.76 38.0682 453.343 36.6203C453.48 36.2597 453.598 35.898 453.697 35.5375C454.057 35.4376 454.419 35.3204 454.78 35.1838C456.228 34.6005 457.676 33.83 459.124 32.2764C457.677 30.7216 456.229 29.9511 454.781 29.3678Z" fill="#152F67"/>
<path d="M193.956 369.582C193.636 369.46 193.316 369.357 192.995 369.269C192.908 368.952 192.805 368.636 192.684 368.319C192.17 367.046 191.494 365.773 190.137 364.5C188.78 365.772 188.105 367.046 187.59 368.319C187.469 368.638 187.364 368.958 187.277 369.277C186.958 369.365 186.638 369.469 186.319 369.59C185.046 370.105 183.773 370.78 182.5 372.137C183.772 373.494 185.046 374.17 186.319 374.684C186.636 374.805 186.952 374.908 187.269 374.995C187.356 375.316 187.461 375.636 187.582 375.955C188.096 377.229 188.773 378.501 190.138 379.774C191.504 378.501 192.181 377.229 192.694 375.955C192.815 375.638 192.918 375.32 193.005 375.003C193.322 374.916 193.641 374.813 193.957 374.692C195.231 374.179 196.503 373.501 197.777 372.136C196.502 370.772 195.229 370.095 193.956 369.582Z" fill="#152F67"/>
<path d="M130.917 154.764C130.597 154.642 130.276 154.539 129.956 154.45C129.869 154.133 129.765 153.818 129.645 153.501C129.131 152.227 128.455 150.955 127.098 149.682C125.741 150.954 125.066 152.227 124.551 153.501C124.429 153.82 124.325 154.139 124.238 154.458C123.919 154.547 123.599 154.65 123.28 154.772C122.007 155.286 120.734 155.962 119.461 157.319C120.733 158.676 122.007 159.351 123.28 159.866C123.597 159.986 123.913 160.09 124.23 160.177C124.317 160.497 124.421 160.818 124.543 161.137C125.056 162.41 125.734 163.683 127.099 164.956C128.465 163.683 129.142 162.41 129.655 161.137C129.776 160.82 129.879 160.502 129.966 160.185C130.283 160.098 130.601 159.994 130.918 159.874C132.192 159.36 133.464 158.683 134.738 157.318C133.463 155.953 132.189 155.277 130.917 154.764Z" fill="#152F67"/>
<path d="M454.781 29.3678C454.417 29.23 454.053 29.1117 453.688 29.0118C453.588 28.6524 453.471 28.2919 453.333 27.9313C452.747 26.4833 451.98 25.0354 450.436 23.5874C448.891 25.0354 448.124 26.4833 447.539 27.9313C447.4 28.2942 447.282 28.6582 447.182 29.021C446.819 29.1209 446.455 29.2392 446.092 29.3781C444.644 29.9637 443.196 30.7308 441.748 32.2752C443.196 33.8196 444.644 34.5867 446.092 35.1723C446.452 35.3101 446.812 35.4272 447.172 35.5271C447.272 35.8911 447.391 36.2551 447.528 36.6203C448.112 38.0682 448.882 39.5162 450.436 40.9642C451.989 39.5162 452.76 38.0682 453.343 36.6203C453.48 36.2597 453.598 35.898 453.697 35.5375C454.057 35.4376 454.419 35.3204 454.78 35.1838C456.228 34.6005 457.676 33.83 459.124 32.2764C457.677 30.7216 456.229 29.9511 454.781 29.3678Z" fill="#152F67"/>
<path d="M193.956 369.582C193.636 369.46 193.316 369.357 192.995 369.269C192.908 368.952 192.805 368.636 192.684 368.319C192.17 367.046 191.494 365.773 190.137 364.5C188.78 365.772 188.105 367.046 187.59 368.319C187.469 368.638 187.364 368.958 187.277 369.277C186.958 369.365 186.638 369.469 186.319 369.59C185.046 370.105 183.773 370.78 182.5 372.137C183.772 373.494 185.046 374.17 186.319 374.684C186.636 374.805 186.952 374.908 187.269 374.995C187.356 375.316 187.461 375.636 187.582 375.955C188.096 377.229 188.773 378.501 190.138 379.774C191.504 378.501 192.181 377.229 192.694 375.955C192.815 375.638 192.918 375.32 193.005 375.003C193.322 374.916 193.641 374.813 193.957 374.692C195.231 374.179 196.503 373.501 197.777 372.136C196.502 370.772 195.229 370.095 193.956 369.582Z" fill="#152F67"/>
<path d="M130.917 154.764C130.597 154.642 130.276 154.539 129.956 154.45C129.869 154.133 129.765 153.818 129.645 153.501C129.131 152.227 128.455 150.955 127.098 149.682C125.741 150.954 125.066 152.227 124.551 153.501C124.429 153.82 124.325 154.139 124.238 154.458C123.919 154.547 123.599 154.65 123.28 154.772C122.007 155.286 120.734 155.962 119.461 157.319C120.733 158.676 122.007 159.351 123.28 159.866C123.597 159.986 123.913 160.09 124.23 160.177C124.317 160.497 124.421 160.818 124.543 161.137C125.056 162.41 125.734 163.683 127.099 164.956C128.465 163.683 129.142 162.41 129.655 161.137C129.776 160.82 129.879 160.502 129.966 160.185C130.283 160.098 130.601 159.994 130.918 159.874C132.192 159.36 133.464 158.683 134.738 157.318C133.463 155.953 132.189 155.277 130.917 154.764Z" fill="#152F67"/>
<path d="M63.9651 272.33C63.6011 272.192 63.2371 272.074 62.8719 271.974C62.772 271.614 62.6549 271.254 62.5182 270.894C61.9326 269.446 61.1656 267.998 59.6212 266.55C58.0767 267.998 57.3097 269.446 56.7241 270.894C56.5851 271.257 56.4669 271.621 56.367 271.983C56.0041 272.083 55.6401 272.202 55.2773 272.341C53.8293 272.926 52.3813 273.693 50.9333 275.238C52.3813 276.782 53.8293 277.549 55.2773 278.135C55.6367 278.272 55.9972 278.39 56.3578 278.49C56.4577 278.854 56.576 279.218 56.7137 279.583C57.2971 281.031 58.0676 282.479 59.6212 283.927C61.1748 282.479 61.9453 281.031 62.5286 279.583C62.6652 279.222 62.7835 278.86 62.8823 278.5C63.2428 278.401 63.6045 278.283 63.9651 278.146C65.413 277.563 66.861 276.792 68.309 275.239C66.861 273.685 65.413 272.915 63.9651 272.33Z" fill="#152F67"/>
<path d="M301.032 454.78C300.668 454.643 300.304 454.524 299.939 454.424C299.839 454.064 299.722 453.704 299.585 453.344C298.999 451.896 298.232 450.448 296.688 449C295.143 450.448 294.376 451.896 293.791 453.344C293.652 453.707 293.534 454.071 293.434 454.434C293.071 454.534 292.707 454.652 292.344 454.791C290.896 455.376 289.448 456.143 288 457.688C289.448 459.232 290.896 459.999 292.344 460.585C292.703 460.723 293.064 460.84 293.424 460.94C293.524 461.304 293.643 461.668 293.78 462.033C294.364 463.481 295.134 464.929 296.688 466.377C298.241 464.929 299.012 463.481 299.595 462.033C299.732 461.672 299.85 461.311 299.949 460.95C300.309 460.851 300.671 460.733 301.032 460.596C302.48 460.013 303.928 459.243 305.376 457.689C303.928 456.135 302.48 455.365 301.032 454.78Z" fill="#152F67"/>
<path d="M484.728 201.986C484.364 201.849 484 201.73 483.636 201.63C483.536 201.27 483.419 200.911 483.281 200.55C482.696 199.102 481.928 197.654 480.384 196.206C478.839 197.654 478.072 199.102 477.487 200.55C477.349 200.913 477.23 201.277 477.13 201.64C476.767 201.74 476.403 201.858 476.04 201.997C474.592 202.582 473.144 203.349 471.696 204.894C473.144 206.438 474.592 207.206 476.04 207.791C476.4 207.929 476.76 208.046 477.12 208.146C477.22 208.51 477.339 208.874 477.476 209.238C478.06 210.686 478.83 212.134 480.384 213.582C481.937 212.134 482.708 210.686 483.291 209.238C483.428 208.877 483.546 208.516 483.645 208.155C484.005 208.055 484.367 207.938 484.728 207.801C486.176 207.218 487.624 206.447 489.072 204.894C487.624 203.341 486.176 202.57 484.728 201.986Z" fill="#152F67"/>
<path d="M635.869 51.8603C635.686 51.7914 635.504 51.7317 635.321 51.6823C635.272 51.502 635.212 51.3218 635.144 51.1415C634.851 50.4158 634.466 49.6901 633.692 48.9644C632.918 49.6901 632.533 50.4158 632.239 51.1415C632.17 51.3241 632.11 51.5055 632.06 51.6881C631.877 51.7386 631.696 51.7971 631.513 51.8672C630.788 52.16 630.062 52.5447 629.336 53.3197C630.062 54.0937 630.788 54.4784 631.513 54.7712C631.694 54.8401 631.874 54.8986 632.054 54.9491C632.105 55.1317 632.163 55.3143 632.232 55.4969C632.525 56.2226 632.911 56.9483 633.689 57.674C634.468 56.9483 634.854 56.2226 635.146 55.4969C635.215 55.3154 635.274 55.1352 635.323 54.9537C635.505 54.9044 635.685 54.8446 635.866 54.7769C636.592 54.4841 637.318 54.0983 638.044 53.3197C637.32 52.5389 636.594 52.1531 635.869 51.8603Z" fill="#F2C947"/>
<path d="M585.533 455.896C585.35 455.827 585.167 455.767 584.985 455.718C584.935 455.538 584.876 455.357 584.808 455.177C584.515 454.451 584.129 453.726 583.355 453C582.581 453.726 582.197 454.451 581.903 455.177C581.834 455.36 581.774 455.541 581.724 455.724C581.541 455.774 581.36 455.833 581.177 455.903C580.451 456.196 579.726 456.58 579 457.355C579.726 458.129 580.451 458.514 581.177 458.807C581.357 458.876 581.538 458.934 581.718 458.985C581.768 459.167 581.827 459.35 581.896 459.533C582.189 460.258 582.575 460.984 583.353 461.71C584.132 460.984 584.517 460.258 584.81 459.533C584.879 459.351 584.938 459.171 584.987 458.989C585.168 458.94 585.349 458.88 585.53 458.813C586.256 458.52 586.982 458.134 587.707 457.355C586.984 456.575 586.258 456.189 585.533 455.896Z" fill="#F2C947"/>
<path d="M680.598 181.132C680.416 181.064 680.233 181.004 680.051 180.953C680.001 180.773 679.942 180.593 679.874 180.412C679.581 179.687 679.195 178.961 678.421 178.235C677.647 178.961 677.263 179.687 676.97 180.412C676.9 180.595 676.841 180.776 676.791 180.959C676.608 181.01 676.427 181.069 676.244 181.138C675.519 181.431 674.793 181.816 674.067 182.591C674.793 183.365 675.519 183.749 676.244 184.042C676.425 184.111 676.605 184.17 676.786 184.22C676.837 184.403 676.895 184.585 676.965 184.768C677.258 185.494 677.644 186.219 678.422 186.945C679.201 186.219 679.587 185.494 679.88 184.768C679.949 184.586 680.007 184.406 680.057 184.225C680.237 184.174 680.418 184.116 680.6 184.048C681.325 183.755 682.051 183.369 682.777 182.591C682.05 181.811 681.324 181.425 680.598 181.132Z" fill="#F2C947"/>
<path d="M678.893 178.105C678.711 178.036 678.528 177.976 678.346 177.925C678.296 177.745 678.237 177.565 678.168 177.385C677.874 176.659 677.489 175.933 676.715 175.208C675.941 175.933 675.557 176.659 675.263 177.385C675.194 177.567 675.134 177.749 675.083 177.931C674.901 177.982 674.719 178.04 674.537 178.11C673.811 178.403 673.085 178.788 672.36 179.562C673.085 180.336 673.811 180.72 674.537 181.013C674.717 181.082 674.897 181.141 675.078 181.191C675.128 181.374 675.187 181.556 675.257 181.739C675.55 182.465 675.935 183.19 676.714 183.916C677.492 183.19 677.878 182.465 678.171 181.739C678.24 181.557 678.299 181.377 678.349 181.196C678.529 181.146 678.711 181.087 678.892 181.019C679.618 180.726 680.344 180.34 681.069 179.562C680.345 178.783 679.619 178.396 678.893 178.105Z" fill="#F2C947"/>
<path d="M154.547 217.606C154.365 217.537 154.182 217.477 154 217.427C153.949 217.247 153.891 217.066 153.822 216.886C153.528 216.16 153.144 215.435 152.37 214.709C151.596 215.435 151.212 216.16 150.918 216.886C150.849 217.069 150.789 217.25 150.739 217.433C150.556 217.483 150.375 217.542 150.192 217.612C149.466 217.906 148.741 218.289 148.015 219.063C148.741 219.837 149.466 220.222 150.192 220.516C150.372 220.585 150.553 220.643 150.734 220.694C150.783 220.876 150.843 221.059 150.912 221.241C151.205 221.967 151.591 222.693 152.369 223.419C153.148 222.693 153.533 221.967 153.826 221.241C153.895 221.061 153.954 220.88 154.003 220.698C154.185 220.649 154.365 220.589 154.546 220.522C155.272 220.229 155.998 219.843 156.723 219.064C155.999 218.286 155.273 217.899 154.547 217.606Z" fill="#152F67"/>
<path d="M74.7127 447.141C74.5302 447.072 74.3476 447.012 74.165 446.962C74.1145 446.781 74.0559 446.601 73.987 446.421C73.6942 445.695 73.3096 444.969 72.5356 444.244C71.7617 444.969 71.377 445.695 71.0842 446.421C71.0153 446.603 70.9556 446.785 70.9051 446.967C70.7225 447.018 70.5411 447.076 70.3585 447.146C69.6328 447.439 68.9071 447.825 68.1814 448.599C68.9071 449.373 69.6328 449.758 70.3585 450.05C70.5388 450.119 70.7191 450.178 70.8993 450.227C70.9499 450.41 71.0084 450.592 71.0785 450.775C71.3713 451.501 71.7571 452.226 72.5356 452.952C73.3142 452.226 73.7 451.501 73.9928 450.775C74.0617 450.594 74.1202 450.413 74.1696 450.232C74.351 450.182 74.5313 450.124 74.7127 450.055C75.4385 449.762 76.1642 449.376 76.8899 448.598C76.1642 447.819 75.4373 447.434 74.7127 447.141Z" fill="#152F67"/>
<path d="M383.668 102.395C383.485 102.326 383.302 102.266 383.12 102.216C383.07 102.035 383.011 101.855 382.942 101.675C382.649 100.949 382.264 100.223 381.49 99.4976C380.717 100.223 380.332 100.949 380.039 101.675C379.97 101.857 379.91 102.039 379.86 102.221C379.677 102.272 379.496 102.33 379.313 102.4C378.588 102.693 377.862 103.078 377.136 103.852C377.862 104.626 378.588 105.01 379.313 105.303C379.494 105.372 379.674 105.431 379.854 105.481C379.905 105.664 379.963 105.846 380.033 106.029C380.326 106.755 380.712 107.48 381.49 108.206C382.269 107.48 382.655 106.755 382.948 106.029C383.017 105.847 383.075 105.667 383.124 105.486C383.306 105.436 383.486 105.378 383.666 105.309C384.392 105.016 385.118 104.63 385.844 103.852C385.119 103.073 384.393 102.687 383.668 102.395Z" fill="#152F67"/>
<path d="M172.788 28.4894C172.605 28.4205 172.422 28.3608 172.24 28.3102C172.191 28.13 172.131 27.9497 172.062 27.7694C171.768 27.0437 171.383 26.318 170.609 25.5923C169.835 26.318 169.451 27.0437 169.158 27.7694C169.089 27.952 169.029 28.1334 168.979 28.316C168.796 28.3665 168.615 28.4251 168.432 28.4951C167.707 28.7879 166.981 29.1726 166.255 29.9465C166.981 30.7205 167.707 31.1051 168.432 31.3979C168.613 31.4668 168.793 31.5254 168.974 31.5759C169.025 31.7585 169.083 31.9411 169.153 32.1236C169.446 32.8493 169.832 33.5751 170.611 34.3008C171.389 33.5751 171.775 32.8493 172.068 32.1236C172.137 31.9422 172.195 31.7619 172.244 31.5805C172.426 31.5311 172.606 31.4714 172.788 31.4037C173.513 31.1109 174.239 30.7251 174.965 29.9465C174.239 29.168 173.514 28.7822 172.788 28.4894Z" fill="#152F67"/>
<path d="M623.432 224.257C623.249 224.188 623.067 224.128 622.884 224.078C622.835 223.898 622.775 223.717 622.706 223.537C622.413 222.811 622.029 222.086 621.255 221.36C620.481 222.086 620.096 222.811 619.802 223.537C619.733 223.72 619.674 223.901 619.623 224.084C619.441 224.134 619.259 224.193 619.077 224.263C618.351 224.557 617.625 224.94 616.899 225.715C617.625 226.489 618.351 226.874 619.077 227.167C619.257 227.236 619.437 227.294 619.617 227.345C619.668 227.527 619.726 227.71 619.797 227.892C620.089 228.618 620.475 229.344 621.254 230.069C622.032 229.344 622.418 228.618 622.711 227.892C622.78 227.711 622.838 227.531 622.888 227.349C623.068 227.3 623.249 227.24 623.431 227.172C624.156 226.88 624.882 226.494 625.608 225.715C624.883 224.936 624.158 224.55 623.432 224.257Z" fill="#152F67"/>
<path d="M407.949 148.212C407.766 148.143 407.584 148.083 407.401 148.032C407.351 147.852 407.292 147.672 407.223 147.492C406.93 146.766 406.546 146.04 405.772 145.314C404.998 146.04 404.613 146.766 404.319 147.492C404.25 147.674 404.19 147.856 404.14 148.038C403.959 148.089 403.776 148.147 403.593 148.217C402.868 148.51 402.142 148.895 401.416 149.669C402.142 150.443 402.868 150.827 403.593 151.121C403.774 151.19 403.954 151.249 404.134 151.299C404.185 151.482 404.243 151.664 404.313 151.847C404.606 152.573 404.992 153.298 405.77 154.024C406.549 153.298 406.935 152.573 407.228 151.847C407.297 151.666 407.355 151.485 407.404 151.304C407.586 151.254 407.766 151.195 407.948 151.127C408.673 150.834 409.399 150.448 410.125 149.67C409.4 148.89 408.674 148.504 407.949 148.212Z" fill="#F2C947"/>
<path d="M325.858 62.0534C325.537 61.9317 325.217 61.8284 324.897 61.74C324.809 61.423 324.706 61.1073 324.586 60.7903C324.071 59.5169 323.396 58.2446 322.039 56.9712C320.681 58.2446 320.006 59.5169 319.492 60.7903C319.37 61.1096 319.266 61.4288 319.177 61.748C318.858 61.8364 318.539 61.9398 318.22 62.0615C316.947 62.5759 315.674 63.2511 314.4 64.6083C315.674 65.9656 316.946 66.6408 318.22 67.1552C318.536 67.2758 318.852 67.3791 319.169 67.4664C319.258 67.7868 319.361 68.1071 319.483 68.4263C319.996 69.6998 320.673 70.972 322.039 72.2455C323.404 70.9732 324.081 69.6998 324.595 68.4263C324.715 68.1094 324.819 67.7913 324.906 67.4744C325.223 67.3872 325.541 67.2838 325.858 67.1632C327.13 66.65 328.404 65.9725 329.677 64.6072C328.404 63.2442 327.131 62.5667 325.858 62.0534Z" fill="#152F67"/>
<path d="M130.917 154.764C130.597 154.642 130.276 154.539 129.956 154.45C129.869 154.133 129.765 153.818 129.645 153.501C129.131 152.227 128.455 150.955 127.098 149.682C125.741 150.954 125.066 152.227 124.551 153.501C124.429 153.82 124.325 154.139 124.238 154.458C123.919 154.547 123.599 154.65 123.28 154.772C122.007 155.286 120.734 155.962 119.461 157.319C120.733 158.676 122.007 159.351 123.28 159.866C123.597 159.986 123.913 160.09 124.23 160.177C124.317 160.497 124.421 160.818 124.543 161.137C125.056 162.41 125.734 163.682 127.099 164.956C128.465 163.682 129.142 162.41 129.655 161.137C129.776 160.82 129.879 160.502 129.966 160.185C130.283 160.098 130.601 159.994 130.918 159.874C132.192 159.36 133.464 158.683 134.738 157.318C133.463 155.953 132.189 155.277 130.917 154.764Z" fill="#152F67"/>
<path d="M510.456 434.082C510.136 433.961 509.816 433.857 509.495 433.769C509.408 433.452 509.305 433.136 509.184 432.819C508.67 431.546 507.994 430.273 506.637 429C505.28 430.272 504.605 431.546 504.09 432.819C503.969 433.138 503.864 433.458 503.777 433.777C503.458 433.865 503.138 433.969 502.819 434.09C501.546 434.605 500.273 435.28 499 436.637C500.272 437.994 501.546 438.67 502.819 439.184C503.136 439.305 503.452 439.408 503.769 439.495C503.856 439.816 503.961 440.136 504.082 440.455C504.596 441.729 505.273 443.001 506.638 444.274C508.004 443.001 508.681 441.729 509.194 440.455C509.315 440.138 509.418 439.82 509.506 439.503C509.822 439.416 510.141 439.313 510.457 439.192C511.731 438.679 513.003 438.001 514.277 436.636C513.002 435.272 511.729 434.596 510.456 434.082Z" fill="#152F67"/>
<path d="M542.933 123.92C542.612 123.798 542.292 123.695 541.973 123.606C541.885 123.29 541.782 122.974 541.661 122.657C541.147 121.385 540.472 120.111 539.115 118.839C537.757 120.111 537.082 121.385 536.568 122.657C536.446 122.976 536.341 123.295 536.254 123.615C535.935 123.703 535.616 123.806 535.297 123.928C534.023 124.442 532.751 125.118 531.477 126.475C532.751 127.832 534.023 128.507 535.297 129.022C535.614 129.142 535.929 129.246 536.246 129.333C536.335 129.653 536.438 129.974 536.56 130.294C537.073 131.566 537.75 132.84 539.116 134.112C540.481 132.84 541.159 131.566 541.672 130.294C541.792 129.977 541.896 129.659 541.983 129.342C542.3 129.255 542.618 129.151 542.935 129.031C544.208 128.518 545.481 127.84 546.754 126.475C545.478 125.111 544.206 124.433 542.933 123.92Z" fill="#F2C947"/>
<path d="M144.456 330.082C144.136 329.961 143.816 329.857 143.495 329.769C143.408 329.452 143.305 329.136 143.184 328.819C142.67 327.547 141.994 326.273 140.637 325C139.28 326.272 138.605 327.546 138.09 328.819C137.969 329.138 137.864 329.458 137.777 329.777C137.458 329.865 137.138 329.969 136.819 330.09C135.546 330.605 134.273 331.28 133 332.637C134.273 333.994 135.546 334.67 136.819 335.184C137.136 335.305 137.452 335.408 137.769 335.495C137.856 335.816 137.961 336.136 138.082 336.456C138.596 337.729 139.273 339.002 140.638 340.274C142.004 339.002 142.681 337.729 143.194 336.456C143.315 336.139 143.418 335.821 143.506 335.504C143.822 335.417 144.141 335.314 144.457 335.193C145.73 334.68 147.003 334.002 148.275 332.637C147.002 331.273 145.729 330.596 144.456 330.082Z" fill="#F2C947"/>
<path d="M115.456 89.0822C115.136 88.9605 114.816 88.8572 114.495 88.7688C114.408 88.4518 114.305 88.1361 114.184 87.8191C113.67 86.5469 112.994 85.2734 111.637 84C110.28 85.2723 109.605 86.5457 109.09 87.8191C108.969 88.1384 108.864 88.4576 108.777 88.7768C108.458 88.8652 108.138 88.9686 107.819 89.0903C106.546 89.6047 105.273 90.2799 104 91.6371C105.273 92.9944 106.546 93.6696 107.819 94.184C108.136 94.3046 108.452 94.4079 108.769 94.4952C108.856 94.8156 108.961 95.1359 109.082 95.4563C109.596 96.7286 110.273 98.002 111.638 99.2743C113.004 98.002 113.681 96.7286 114.194 95.4563C114.315 95.1394 114.418 94.8213 114.506 94.5044C114.822 94.4171 115.141 94.3138 115.457 94.1932C116.73 93.6799 118.003 93.0024 119.275 91.6371C118.002 90.273 116.729 89.5955 115.456 89.0822Z" fill="#F2C947"/>
<path d="M645.455 289.082C645.135 288.961 644.814 288.857 644.495 288.769C644.408 288.452 644.305 288.136 644.184 287.819C643.67 286.546 642.994 285.273 641.637 284C640.28 285.273 639.605 286.546 639.09 287.819C638.969 288.138 638.864 288.458 638.777 288.777C638.458 288.865 638.138 288.969 637.818 289.09C636.546 289.605 635.272 290.28 634 291.637C635.273 292.994 636.546 293.67 637.818 294.184C638.135 294.305 638.451 294.408 638.768 294.495C638.856 294.816 638.959 295.136 639.081 295.456C639.594 296.729 640.272 298.002 641.637 299.274C643.002 298.002 643.68 296.729 644.193 295.456C644.314 295.139 644.417 294.821 644.504 294.504C644.821 294.417 645.139 294.314 645.456 294.193C646.73 293.68 648.002 293.002 649.275 291.637C648.001 290.273 646.727 289.596 645.455 289.082Z" fill="#F2C947"/>
<path d="M590.456 382.082C590.136 381.961 589.816 381.857 589.495 381.769C589.408 381.452 589.305 381.136 589.184 380.819C588.67 379.546 587.994 378.273 586.637 377C585.28 378.272 584.605 379.546 584.09 380.819C583.969 381.138 583.864 381.458 583.777 381.777C583.458 381.865 583.138 381.969 582.819 382.09C581.546 382.605 580.273 383.28 579 384.637C580.272 385.994 581.546 386.67 582.819 387.184C583.136 387.305 583.452 387.408 583.769 387.495C583.856 387.816 583.961 388.136 584.082 388.455C584.596 389.729 585.273 391.001 586.638 392.274C588.004 391.001 588.681 389.729 589.194 388.455C589.315 388.138 589.418 387.82 589.506 387.503C589.822 387.416 590.141 387.313 590.457 387.192C591.731 386.679 593.003 386.001 594.277 384.636C593.002 383.272 591.729 382.596 590.456 382.082Z" fill="#152F67"/>
<path d="M371.42 97.8875C393.237 97.8875 414.389 102.155 434.288 110.572C453.521 118.706 470.798 130.357 485.641 145.2C500.483 160.042 512.134 177.319 520.268 196.552C528.685 216.451 532.952 237.603 532.952 259.42C532.952 281.237 528.685 302.389 520.268 322.288C512.134 341.521 500.483 358.798 485.641 373.641C470.798 388.483 453.521 400.134 434.288 408.268C414.389 416.685 393.237 420.953 371.42 420.953C349.603 420.953 328.451 416.685 308.552 408.268C289.319 400.134 272.042 388.483 257.2 373.641C242.357 358.798 230.706 341.521 222.572 322.288C214.156 302.389 209.888 281.237 209.888 259.42C209.888 237.603 214.156 216.451 222.572 196.552C230.706 177.319 242.357 160.042 257.2 145.2C272.042 130.357 289.319 118.706 308.552 110.572C328.451 102.156 349.603 97.8875 371.42 97.8875ZM371.42 74C269.015 74 186 157.015 186 259.42C186 361.825 269.015 444.84 371.42 444.84C473.825 444.84 556.84 361.825 556.84 259.42C556.84 157.015 473.825 74 371.42 74Z" fill="#F2C947"/>
<path d="M571.509 207.779L410.216 369.067C400.228 379.055 384.039 379.055 374.051 369.067L259.187 254.203C249.199 244.219 249.199 228.025 259.187 218.037L288.654 188.57C298.642 178.587 314.832 178.587 324.82 188.57L392.134 255.885L505.877 142.147C515.865 132.159 532.054 132.159 542.042 142.147L571.509 171.614C581.497 181.596 581.497 197.791 571.509 207.779Z" fill="#152F67"/>
<path d="M599.517 97.6882L598.041 102.471L602.285 103.252L601.479 107.631L596.691 106.75L595.116 111.691L590.498 110.842L592.073 105.901L587.897 105.132L586.321 110.073L581.703 109.224L583.278 104.283L579 103.495L579.806 99.1155L584.628 100.003L586.104 95.2206L581.826 94.4329L582.632 90.0534L587.454 90.941L589.029 86L593.646 86.8497L592.071 91.7907L596.247 92.5589L597.822 87.6179L602.441 88.4676L600.865 93.4086L605.144 94.1952L604.338 98.5758L599.517 97.6882ZM594.899 96.8385L590.723 96.0703L589.246 100.853L593.422 101.621L594.899 96.8385Z" fill="#152F67"/>
</g>
<defs>
<clipPath id="clip0_9076_61843">
<rect width="750" height="500" fill="white"/>
</clipPath>
</defs>
</svg>
